<svg width="40" height="40" viewBox="0 0 40 40" fill="none" xmlns="http://www.w3.org/2000/svg">
<path d="M-5.75737e-07 20C-2.5793e-07 31.04 8.96 40 20 40C31.04 40 40 31.04 40 20C40 8.96 31.04 1.49064e-06 20 1.80845e-06C8.96 2.12626e-06 -8.93543e-07 8.96 -5.75737e-07 20ZM22.06 12.94L28.06 18.94C28.36 19.24 28.5 19.62 28.5 20C28.5 20.38 28.36 20.76 28.06 21.06L22.06 27.06C21.48 27.64 20.52 27.64 19.94 27.06C19.36 26.48 19.36 25.52 19.94 24.94L23.38 21.5L13 21.5C12.18 21.5 11.5 20.82 11.5 20C11.5 19.18 12.18 18.5 13 18.5L23.38 18.5L19.94 15.06C19.36 14.48 19.36 13.52 19.94 12.94C20.52 12.36 21.48 12.36 22.06 12.94Z" fill="#2A85E3"/>
</svg>
