<svg width="36" height="36" viewBox="0 0 36 36" fill="none" xmlns="http://www.w3.org/2000/svg">
<path d="M9.69392 28.5C9.13627 28.5 8.57862 28.2946 8.13836 27.8545C7.28721 27.0037 7.28721 25.5954 8.13836 24.7445L24.7505 8.13814C25.6017 7.28729 27.0105 7.28729 27.8616 8.13814C28.7128 8.989 28.7128 10.3973 27.8616 11.2482L11.2495 27.8545C10.8386 28.2946 10.2516 28.5 9.69392 28.5Z" fill="white"/>
<path d="M26.3061 28.5C25.7484 28.5 25.1908 28.2946 24.7505 27.8545L8.13836 11.2482C7.28721 10.3973 7.28721 8.989 8.13836 8.13814C8.98952 7.28729 10.3983 7.28729 11.2495 8.13814L27.8616 24.7445C28.7128 25.5954 28.7128 27.0037 27.8616 27.8545C27.4214 28.2946 26.8637 28.5 26.3061 28.5Z" fill="white"/>
</svg>
