<svg width="11" height="11" viewBox="0 0 11 11" fill="none" xmlns="http://www.w3.org/2000/svg">
<path d="M8.11936 3.5107C8.45441 3.5107 8.72603 3.23908 8.72603 2.90403C8.72603 2.56898 8.45441 2.29736 8.11936 2.29736C7.78431 2.29736 7.5127 2.56898 7.5127 2.90403C7.5127 3.23908 7.78431 3.5107 8.11936 3.5107Z" fill="#041C35"/>
<path fill-rule="evenodd" clip-rule="evenodd" d="M2.97168 5.50019C2.97168 6.89426 4.10539 8.02797 5.49946 8.02797C6.89353 8.02797 8.02724 6.89426 8.02724 5.50019C8.02724 4.10612 6.89353 2.97241 5.49946 2.97241C4.10539 2.97241 2.97168 4.10612 2.97168 5.50019ZM4.23535 5.50022C4.23535 4.80318 4.80221 4.23633 5.49924 4.23633C6.19627 4.23633 6.76313 4.80318 6.76313 5.50022C6.76313 6.19725 6.19627 6.76411 5.49924 6.76411C4.80221 6.76411 4.23535 6.19725 4.23535 5.50022Z" fill="#041C35"/>
<path fill-rule="evenodd" clip-rule="evenodd" d="M2.97211 10.5557H8.02767C9.32695 10.5557 10.5554 9.32719 10.5554 8.02791V2.97236C10.5554 1.67308 9.32695 0.44458 8.02767 0.44458H2.97211C1.67284 0.44458 0.444336 1.67308 0.444336 2.97236V8.02791C0.444336 9.32719 1.67284 10.5557 2.97211 10.5557ZM1.70801 2.97238C1.70801 2.38152 2.38103 1.7085 2.9719 1.7085H8.02745C8.61832 1.7085 9.29134 2.38152 9.29134 2.97238V8.02794C9.29134 8.61881 8.61832 9.29183 8.02745 9.29183H2.9719C2.36965 9.29183 1.70801 8.63018 1.70801 8.02794V2.97238Z" fill="#041C35"/>
</svg>
