<svg width="12" height="12" viewBox="0 0 12 12" fill="none" xmlns="http://www.w3.org/2000/svg">
<path d="M1.48355 2.9671C2.30289 2.9671 2.9671 2.30289 2.9671 1.48355C2.9671 0.664208 2.30289 0 1.48355 0C0.664208 0 0 0.664208 0 1.48355C0 2.30289 0.664208 2.9671 1.48355 2.9671Z" fill="#0A142F"/>
<path d="M2.71984 3.95801H0.247258C0.110772 3.95801 0 4.06878 0 4.20527V11.623C0 11.7595 0.110772 11.8703 0.247258 11.8703H2.71984C2.85633 11.8703 2.9671 11.7595 2.9671 11.623V4.20527C2.9671 4.06878 2.85633 3.95801 2.71984 3.95801Z" fill="#0A142F"/>
<path d="M10.0876 3.54665C9.03077 3.18466 7.70893 3.50263 6.91622 4.07281C6.88902 3.96649 6.7921 3.88737 6.67687 3.88737H4.20429C4.0678 3.88737 3.95703 3.99814 3.95703 4.13463V11.5524C3.95703 11.6889 4.0678 11.7996 4.20429 11.7996H6.67687C6.81336 11.7996 6.92413 11.6889 6.92413 11.5524V6.22149C7.3237 5.8773 7.83849 5.76752 8.25982 5.94653C8.66829 6.11912 8.9022 6.54045 8.9022 7.10172V11.5524C8.9022 11.6889 9.01297 11.7996 9.14946 11.7996H11.622C11.7585 11.7996 11.8693 11.6889 11.8693 11.5524V6.60375C11.8411 4.57178 10.8852 3.81962 10.0876 3.54665Z" fill="#0A142F"/>
</svg>
