<svg width="36" height="36" viewBox="0 0 36 36" fill="none" xmlns="http://www.w3.org/2000/svg">
<path d="M30.9297 12.675C29.3547 5.745 23.3097 2.625 17.9997 2.625C17.9997 2.625 17.9997 2.625 17.9847 2.625C12.6897 2.625 6.62965 5.73 5.05465 12.66C3.29965 20.4 8.03966 26.955 12.3297 31.08C13.9197 32.61 15.9597 33.375 17.9997 33.375C20.0397 33.375 22.0797 32.61 23.6547 31.08C27.9447 26.955 32.6847 20.415 30.9297 12.675ZM17.9997 20.19C15.3897 20.19 13.2747 18.075 13.2747 15.465C13.2747 12.855 15.3897 10.74 17.9997 10.74C20.6097 10.74 22.7247 12.855 22.7247 15.465C22.7247 18.075 20.6097 20.19 17.9997 20.19Z" fill="#2A85E3"/>
</svg>
