<svg width="120" height="34" viewBox="0 0 120 34" fill="none" xmlns="http://www.w3.org/2000/svg">
<path fill-rule="evenodd" clip-rule="evenodd" d="M106.228 20.1541C106.228 20.1819 106.149 20.2048 106.053 20.2048C105.956 20.2048 105.877 20.2277 105.877 20.2558C105.877 20.2839 105.821 20.3069 105.752 20.3069C105.674 20.3069 105.627 20.3356 105.627 20.3833C105.627 20.4257 105.583 20.4597 105.527 20.4597C105.472 20.4597 105.427 20.4826 105.427 20.5104C105.427 20.5385 105.37 20.5614 105.301 20.5614C105.223 20.5614 105.176 20.5901 105.176 20.6378C105.176 20.6797 105.153 20.7142 105.124 20.7142C105.056 20.7142 104.826 20.9483 104.826 21.0174C104.826 21.0467 104.802 21.0709 104.772 21.0709C104.703 21.0709 104.575 21.2004 104.575 21.2707C104.575 21.301 104.551 21.3254 104.521 21.3254C104.44 21.3254 104.325 21.4602 104.325 21.5546C104.325 21.649 104.209 21.7838 104.128 21.7838C104.098 21.7838 104.074 21.8639 104.074 21.962C104.074 22.0601 104.052 22.1404 104.024 22.1404C103.997 22.1404 103.974 22.1976 103.974 22.2676C103.974 22.347 103.946 22.395 103.899 22.395C103.842 22.395 103.824 22.4573 103.824 22.6496C103.824 22.7898 103.801 22.9044 103.774 22.9044C103.743 22.9044 103.724 23.1165 103.724 23.4392C103.724 23.7616 103.743 23.974 103.774 23.974C103.801 23.974 103.824 24.0886 103.824 24.2286C103.824 24.4211 103.842 24.4831 103.899 24.4831C103.951 24.4831 103.974 24.5369 103.974 24.6616C103.974 24.7594 103.997 24.8398 104.024 24.8398C104.052 24.8398 104.074 24.8972 104.074 24.9672C104.074 25.0464 104.103 25.0943 104.149 25.0943C104.196 25.0943 104.225 25.1426 104.225 25.2218C104.225 25.2918 104.247 25.3492 104.275 25.3492C104.302 25.3492 104.325 25.395 104.325 25.451C104.325 25.5069 104.347 25.5527 104.375 25.5527C104.402 25.5527 104.425 25.5873 104.425 25.6291C104.425 25.6713 104.459 25.7055 104.5 25.7055C104.547 25.7055 104.575 25.7538 104.575 25.833C104.575 25.9029 104.598 25.9604 104.625 25.9604C104.653 25.9604 104.675 26.0062 104.675 26.0622C104.675 26.1187 104.709 26.1639 104.75 26.1639C104.797 26.1639 104.826 26.2122 104.826 26.2914C104.826 26.3613 104.848 26.4188 104.876 26.4188C104.903 26.4188 104.926 26.453 104.926 26.4952C104.926 26.5371 104.948 26.5716 104.976 26.5716C105.003 26.5716 105.026 26.6174 105.026 26.6734C105.026 26.7299 105.059 26.7751 105.101 26.7751C105.148 26.7751 105.176 26.8234 105.176 26.9026C105.176 26.9725 105.199 27.03 105.226 27.03C105.254 27.03 105.276 27.0871 105.276 27.1571C105.276 27.2274 105.3 27.2845 105.33 27.2845C105.418 27.2845 105.527 27.4227 105.527 27.5354C105.527 27.5935 105.549 27.6412 105.577 27.6412C105.604 27.6412 105.627 27.6983 105.627 27.7683C105.627 27.8386 105.651 27.8957 105.681 27.8957C105.769 27.8957 105.877 28.0339 105.877 28.1466C105.877 28.2065 105.91 28.2524 105.952 28.2524C105.999 28.2524 106.028 28.3003 106.028 28.3795C106.028 28.4498 106.05 28.5069 106.078 28.5069C106.105 28.5069 106.128 28.5543 106.128 28.6124C106.128 28.7251 106.236 28.8636 106.324 28.8636C106.354 28.8636 106.378 28.9207 106.378 28.9907C106.378 29.061 106.401 29.1181 106.428 29.1181C106.456 29.1181 106.478 29.1756 106.478 29.2456C106.478 29.3155 106.502 29.3727 106.532 29.3727C106.62 29.3727 106.729 29.5111 106.729 29.6239C106.729 29.682 106.751 29.7293 106.779 29.7293C106.806 29.7293 106.829 29.7868 106.829 29.8568C106.829 29.9359 106.857 29.9839 106.904 29.9839C106.947 29.9839 106.979 30.0297 106.979 30.0896C106.979 30.2024 107.087 30.3405 107.176 30.3405C107.206 30.3405 107.23 30.398 107.23 30.4679C107.23 30.5379 107.252 30.5951 107.28 30.5951C107.307 30.5951 107.33 30.6525 107.33 30.7225C107.33 30.7925 107.352 30.8499 107.38 30.8499C107.407 30.8499 107.43 30.8958 107.43 30.9517C107.43 31.0082 107.463 31.0535 107.505 31.0535C107.546 31.0535 107.58 31.088 107.58 31.1299C107.58 31.172 107.603 31.2063 107.63 31.2063C107.658 31.2063 107.68 31.2637 107.68 31.3337C107.68 31.4128 107.709 31.4611 107.755 31.4611C107.797 31.4611 107.831 31.5064 107.831 31.5629C107.831 31.6188 107.853 31.6647 107.881 31.6647C107.908 31.6647 107.931 31.6992 107.931 31.7411C107.931 31.7832 107.953 31.8175 107.981 31.8175C108.009 31.8175 108.031 31.855 108.031 31.9012C108.031 31.9907 108.297 32.2759 108.381 32.2759C108.409 32.2759 108.432 32.3 108.432 32.3293C108.432 32.4265 108.926 32.887 109.03 32.887C109.087 32.887 109.133 32.9118 109.133 32.9417C109.133 33.0316 109.269 33.1419 109.38 33.1419C109.439 33.1419 109.483 33.1749 109.483 33.2183C109.483 33.2715 109.536 33.2947 109.659 33.2947C109.755 33.2947 109.834 33.3176 109.834 33.3454C109.834 33.3736 109.947 33.3965 110.084 33.3965C110.222 33.3965 110.335 33.4194 110.335 33.4475C110.335 33.4787 110.568 33.4982 110.936 33.4982C111.303 33.4982 111.537 33.4787 111.537 33.4475C111.537 33.4194 111.659 33.3965 111.809 33.3965C111.959 33.3965 112.096 33.3736 112.113 33.3454C112.13 33.3176 112.188 33.2947 112.243 33.2947C112.297 33.2947 112.354 33.2602 112.37 33.2183C112.386 33.1761 112.442 33.1419 112.494 33.1419C112.546 33.1419 112.588 33.119 112.588 33.0909C112.588 33.0628 112.645 33.0398 112.714 33.0398C112.792 33.0398 112.839 33.0111 112.839 32.9634C112.839 32.9216 112.873 32.887 112.914 32.887C112.955 32.887 112.989 32.8641 112.989 32.8363C112.989 32.8082 113.034 32.7853 113.089 32.7853C113.144 32.7853 113.189 32.7624 113.189 32.7342C113.189 32.7064 113.223 32.6835 113.265 32.6835C113.306 32.6835 113.34 32.6588 113.34 32.6288C113.34 32.5582 113.467 32.4287 113.537 32.4287C113.566 32.4287 113.59 32.3993 113.59 32.3636C113.59 32.3278 113.635 32.2655 113.69 32.2251C113.745 32.1848 113.79 32.0992 113.79 32.0357C113.79 31.9663 113.821 31.9195 113.866 31.9195C113.912 31.9195 113.941 31.8712 113.941 31.7921C113.941 31.7221 113.963 31.6647 113.991 31.6647C114.019 31.6647 114.041 31.6213 114.041 31.5684C114.041 31.5152 114.075 31.4587 114.116 31.4425C114.157 31.4266 114.191 31.3667 114.191 31.3099C114.191 31.253 114.214 31.2063 114.241 31.2063C114.269 31.2063 114.291 31.0917 114.291 30.9517C114.291 30.8117 114.314 30.6971 114.342 30.6971C114.372 30.6971 114.391 30.4423 114.391 30.0349C114.391 29.6276 114.372 29.3727 114.342 29.3727C114.314 29.3727 114.291 29.2581 114.291 29.1181C114.291 28.9782 114.269 28.8636 114.241 28.8636C114.214 28.8636 114.191 28.8177 114.191 28.7615C114.191 28.705 114.158 28.6597 114.116 28.6597C114.069 28.6597 114.041 28.6118 114.041 28.5323C114.041 28.4623 114.019 28.4052 113.991 28.4052C113.963 28.4052 113.941 28.3477 113.941 28.2777C113.941 28.1986 113.912 28.1503 113.866 28.1503C113.819 28.1503 113.79 28.1023 113.79 28.0232C113.79 27.9532 113.768 27.8957 113.741 27.8957C113.713 27.8957 113.69 27.8484 113.69 27.7903C113.69 27.6775 113.582 27.5391 113.494 27.5391C113.464 27.5391 113.44 27.482 113.44 27.412C113.44 27.342 113.418 27.2845 113.39 27.2845C113.362 27.2845 113.34 27.2274 113.34 27.1571C113.34 27.078 113.311 27.03 113.265 27.03C113.223 27.03 113.189 26.9848 113.189 26.9279C113.189 26.872 113.167 26.8262 113.14 26.8262C113.112 26.8262 113.089 26.7919 113.089 26.7498C113.089 26.7076 113.067 26.6734 113.039 26.6734C113.012 26.6734 112.989 26.6162 112.989 26.5459C112.989 26.4668 112.961 26.4188 112.914 26.4188C112.872 26.4188 112.839 26.3736 112.839 26.3167C112.839 26.2608 112.817 26.215 112.789 26.215C112.761 26.215 112.739 26.1578 112.739 26.0875C112.739 26.0084 112.71 25.9604 112.664 25.9604C112.619 25.9604 112.588 25.9133 112.588 25.8443C112.588 25.7804 112.543 25.6951 112.488 25.6548C112.433 25.6145 112.388 25.5289 112.388 25.4653C112.388 25.396 112.358 25.3492 112.313 25.3492C112.272 25.3492 112.238 25.3147 112.238 25.2728C112.238 25.2306 112.216 25.1964 112.188 25.1964C112.16 25.1964 112.138 25.1506 112.138 25.0943C112.138 25.0378 112.104 24.9926 112.063 24.9926C112.016 24.9926 111.987 24.9446 111.987 24.8651C111.987 24.7952 111.965 24.738 111.938 24.738C111.91 24.738 111.887 24.6977 111.886 24.6488C111.884 24.5388 111.771 24.3814 111.694 24.3814C111.663 24.3814 111.637 24.3242 111.637 24.2539C111.637 24.184 111.615 24.1268 111.587 24.1268C111.559 24.1268 111.537 24.0694 111.537 23.9994C111.537 23.9294 111.513 23.8719 111.483 23.8719C111.395 23.8719 111.286 23.7338 111.286 23.6211C111.286 23.563 111.264 23.5156 111.236 23.5156C111.209 23.5156 111.186 23.4582 111.186 23.3882C111.186 23.309 111.158 23.2608 111.111 23.2608C111.069 23.2608 111.036 23.2152 111.036 23.1553C111.036 23.0426 110.928 22.9044 110.839 22.9044C110.81 22.9044 110.785 22.847 110.785 22.777C110.785 22.707 110.763 22.6496 110.736 22.6496C110.708 22.6496 110.685 22.5924 110.685 22.5224C110.685 22.4525 110.663 22.395 110.635 22.395C110.608 22.395 110.585 22.3525 110.585 22.3003C110.585 22.2483 110.529 22.1624 110.46 22.1099C110.391 22.0573 110.335 21.9626 110.335 21.899C110.335 21.8358 110.311 21.7838 110.281 21.7838C110.2 21.7838 110.084 21.649 110.084 21.5546C110.084 21.4602 109.969 21.3254 109.888 21.3254C109.858 21.3254 109.834 21.301 109.834 21.2707C109.834 21.2004 109.707 21.0709 109.637 21.0709C109.608 21.0709 109.583 21.0467 109.583 21.0174C109.583 20.9248 109.342 20.7142 109.235 20.7142C109.177 20.7142 109.133 20.6809 109.133 20.6378C109.133 20.5956 109.099 20.5614 109.058 20.5614C109.016 20.5614 108.982 20.5385 108.982 20.5104C108.982 20.4826 108.937 20.4597 108.882 20.4597C108.827 20.4597 108.782 20.4257 108.782 20.3833C108.782 20.3356 108.735 20.3069 108.657 20.3069C108.588 20.3069 108.532 20.2839 108.532 20.2558C108.532 20.2277 108.453 20.2048 108.356 20.2048C108.26 20.2048 108.181 20.1819 108.181 20.1541C108.181 20.1217 107.822 20.103 107.205 20.103C106.587 20.103 106.228 20.1217 106.228 20.1541Z" fill="#F34C54"/>
<path fill-rule="evenodd" clip-rule="evenodd" d="M106.378 0.95234C106.378 0.983511 106.144 1.00338 105.777 1.00338C105.276 1.00338 105.176 1.01621 105.176 1.07977C105.176 1.14089 105.101 1.15617 104.801 1.15617C104.583 1.15617 104.425 1.17757 104.425 1.20721C104.425 1.23532 104.291 1.25794 104.124 1.25794C103.957 1.25794 103.824 1.28055 103.824 1.30897C103.824 1.33709 103.745 1.36001 103.648 1.36001C103.526 1.36001 103.473 1.38293 103.473 1.43641C103.473 1.49294 103.415 1.5128 103.248 1.5128C103.124 1.5128 103.022 1.53572 103.022 1.56353C103.022 1.59165 102.946 1.61457 102.852 1.61457C102.748 1.61457 102.671 1.64391 102.654 1.69097C102.638 1.73283 102.579 1.76737 102.523 1.76737C102.467 1.76737 102.421 1.79029 102.421 1.8184C102.421 1.84621 102.331 1.86913 102.221 1.86913C102.111 1.86913 102.021 1.89205 102.021 1.92016C102.021 1.94828 101.976 1.9712 101.921 1.9712C101.865 1.9712 101.82 2.00512 101.82 2.0476C101.82 2.09497 101.773 2.124 101.695 2.124C101.626 2.124 101.57 2.14692 101.57 2.17473C101.57 2.20284 101.514 2.22576 101.445 2.22576C101.367 2.22576 101.32 2.25449 101.32 2.30216C101.32 2.35564 101.267 2.37856 101.144 2.37856C101.048 2.37856 100.969 2.40148 100.969 2.42959C100.969 2.4574 100.935 2.48032 100.894 2.48032C100.853 2.48032 100.819 2.50324 100.819 2.53136C100.819 2.55947 100.774 2.58239 100.719 2.58239C100.663 2.58239 100.618 2.61631 100.618 2.65879C100.618 2.70616 100.571 2.73519 100.493 2.73519C100.424 2.73519 100.368 2.75811 100.368 2.78592C100.368 2.81404 100.334 2.83695 100.293 2.83695C100.252 2.83695 100.218 2.87118 100.218 2.91335C100.218 2.95583 100.173 2.98975 100.118 2.98975C100.063 2.98975 100.017 3.01267 100.017 3.04079C100.017 3.0686 99.9835 3.09152 99.9423 3.09152C99.9008 3.09152 99.8672 3.11444 99.8672 3.14255C99.8672 3.17067 99.811 3.19359 99.7419 3.19359C99.6731 3.19359 99.6169 3.21803 99.6169 3.24798C99.6169 3.33783 99.4808 3.44815 99.3699 3.44815C99.3128 3.44815 99.2662 3.4726 99.2662 3.50285C99.2662 3.57314 99.1388 3.70271 99.0694 3.70271C99.0399 3.70271 99.0159 3.72563 99.0159 3.75374C99.0159 3.78186 98.9708 3.80478 98.9155 3.80478C98.8599 3.80478 98.8154 3.8387 98.8154 3.88118C98.8154 3.92304 98.7914 3.95758 98.7617 3.95758C98.6925 3.95758 98.5651 4.08715 98.5651 4.15744C98.5651 4.18769 98.5414 4.21214 98.5125 4.21214C98.4446 4.21214 98.2144 4.44623 98.2144 4.51529C98.2144 4.54463 98.1904 4.56877 98.1606 4.56877C98.0915 4.56877 97.9641 4.69834 97.9641 4.76863C97.9641 4.79888 97.9404 4.82333 97.9115 4.82333C97.8436 4.82333 97.6134 5.05742 97.6134 5.12648C97.6134 5.15582 97.5894 5.17996 97.5596 5.17996C97.4905 5.17996 97.3631 5.30954 97.3631 5.37982C97.3631 5.41008 97.3388 5.43453 97.3093 5.43453C97.2282 5.43453 97.1125 5.56929 97.1125 5.66372C97.1125 5.75815 96.9971 5.89292 96.9159 5.89292C96.8862 5.89292 96.8622 5.91737 96.8622 5.94762C96.8622 6.01791 96.7347 6.14748 96.6653 6.14748C96.6359 6.14748 96.6118 6.19974 96.6118 6.26361C96.6118 6.32748 96.5668 6.41274 96.5115 6.45308C96.4565 6.49342 96.4114 6.57898 96.4114 6.64255C96.4114 6.70642 96.3874 6.75868 96.3576 6.75868C96.2693 6.75868 96.1611 6.89711 96.1611 7.00988C96.1611 7.06977 96.1283 7.11531 96.086 7.11531C96.0445 7.11531 96.0108 7.14984 96.0108 7.19171C96.0108 7.23357 95.9883 7.26811 95.9607 7.26811C95.933 7.26811 95.9105 7.31394 95.9105 7.36987C95.9105 7.4261 95.8879 7.47194 95.8606 7.47194C95.8329 7.47194 95.8104 7.52908 95.8104 7.59907C95.8104 7.67852 95.7822 7.7265 95.7353 7.7265C95.6884 7.7265 95.6601 7.77448 95.6601 7.85393C95.6601 7.92392 95.6376 7.98106 95.61 7.98106C95.5826 7.98106 95.5601 8.03851 95.5601 8.1085C95.5601 8.18765 95.5315 8.23593 95.485 8.23593C95.4381 8.23593 95.4098 8.28391 95.4098 8.36306C95.4098 8.43335 95.3873 8.49049 95.3596 8.49049C95.332 8.49049 95.3095 8.53633 95.3095 8.59226C95.3095 8.64849 95.2869 8.69432 95.2596 8.69432C95.2319 8.69432 95.2094 8.75147 95.2094 8.82145C95.2094 8.90091 95.1811 8.94889 95.1343 8.94889C95.0817 8.94889 95.0591 9.00267 95.0591 9.12705C95.0591 9.22515 95.0366 9.30552 95.009 9.30552C94.9816 9.30552 94.9591 9.3972 94.9591 9.50905C94.9591 9.65634 94.938 9.71288 94.8839 9.71288C94.8314 9.71288 94.8088 9.76666 94.8088 9.89104C94.8088 9.98914 94.7863 10.0695 94.7586 10.0695C94.731 10.0695 94.7085 10.1725 94.7085 10.2987C94.7085 10.4246 94.6859 10.5279 94.6586 10.5279C94.6309 10.5279 94.6084 10.6425 94.6084 10.7825C94.6084 10.975 94.5901 11.037 94.5333 11.037C94.475 11.037 94.4581 11.1052 94.4581 11.3426C94.4581 11.5125 94.4359 11.6482 94.408 11.6482C94.3794 11.6482 94.3581 11.7998 94.3581 12.0006C94.3581 12.2371 94.3373 12.36 94.2953 12.374C94.2499 12.3893 94.2282 12.6121 94.2168 13.1933C94.2078 13.6392 94.1802 13.9912 94.154 13.9912C94.1282 13.9912 94.1075 14.2501 94.1075 14.5771C94.1075 14.9334 94.1273 15.1626 94.1576 15.1626C94.1907 15.1626 94.2078 17.8032 94.2078 22.9825C94.2078 29.8865 94.2165 30.8058 94.2829 30.8314C94.3337 30.8516 94.3581 30.9326 94.3581 31.0845C94.3581 31.2076 94.3806 31.3085 94.408 31.3085C94.4356 31.3085 94.4581 31.3656 94.4581 31.4356C94.4581 31.5151 94.4864 31.563 94.5333 31.563C94.5801 31.563 94.6084 31.611 94.6084 31.6905C94.6084 31.7605 94.6309 31.8176 94.6586 31.8176C94.6859 31.8176 94.7085 31.8653 94.7085 31.9233C94.7085 32.023 94.8142 32.1742 94.8839 32.1742C94.9359 32.1742 95.0591 32.3151 95.0591 32.3744C95.0591 32.4043 95.0832 32.4288 95.1129 32.4288C95.1712 32.4288 95.3095 32.5544 95.3095 32.6073C95.3095 32.6601 95.448 32.7854 95.5063 32.7854C95.5357 32.7854 95.5601 32.8083 95.5601 32.8365C95.5601 32.8643 95.6163 32.8872 95.6851 32.8872C95.7632 32.8872 95.8104 32.9162 95.8104 32.9636C95.8104 33.0061 95.8549 33.04 95.9105 33.04C95.9658 33.04 96.0108 33.0629 96.0108 33.091C96.0108 33.1191 96.067 33.1421 96.1358 33.1421C96.214 33.1421 96.2612 33.1708 96.2612 33.2185C96.2612 33.2658 96.3083 33.2948 96.3865 33.2948C96.4553 33.2948 96.5115 33.3178 96.5115 33.3456C96.5115 33.374 96.6452 33.3966 96.812 33.3966C96.9791 33.3966 97.1125 33.4192 97.1125 33.4477C97.1125 33.4779 97.3045 33.4984 97.5885 33.4984C97.8721 33.4984 98.0642 33.4779 98.0642 33.4477C98.0642 33.4192 98.1976 33.3966 98.3647 33.3966C98.5318 33.3966 98.6652 33.374 98.6652 33.3456C98.6652 33.3178 98.7439 33.2948 98.8404 33.2948C98.963 33.2948 99.0159 33.2716 99.0159 33.2185C99.0159 33.1708 99.0631 33.1421 99.1409 33.1421C99.21 33.1421 99.2662 33.1191 99.2662 33.091C99.2662 33.0629 99.3227 33.04 99.3915 33.04C99.4603 33.04 99.5165 33.0155 99.5165 32.9856C99.5165 32.9031 99.649 32.7854 99.7419 32.7854C99.835 32.7854 99.9673 32.6678 99.9673 32.5853C99.9673 32.5553 99.9916 32.5309 100.021 32.5309C100.09 32.5309 100.218 32.4013 100.218 32.3307C100.218 32.3007 100.242 32.276 100.271 32.276C100.36 32.276 100.468 32.1379 100.468 32.0251C100.468 31.967 100.491 31.9197 100.518 31.9197C100.546 31.9197 100.568 31.8622 100.568 31.7922C100.568 31.7223 100.593 31.6648 100.622 31.6648C100.724 31.6648 100.819 31.519 100.819 31.3629C100.819 31.2577 100.844 31.2064 100.894 31.2064C100.946 31.2064 100.969 31.1526 100.969 31.0282C100.969 30.9301 100.992 30.8501 101.019 30.8501C101.052 30.8501 101.069 27.8788 101.069 22.0385C101.069 16.1983 101.086 13.2272 101.119 13.2272C101.147 13.2272 101.169 13.0916 101.169 12.9216C101.169 12.6839 101.186 12.616 101.244 12.616C101.301 12.616 101.32 12.5537 101.32 12.3615C101.32 12.2212 101.342 12.1066 101.37 12.1066C101.397 12.1066 101.42 12.0266 101.42 11.9285C101.42 11.8041 101.442 11.7503 101.495 11.7503C101.542 11.7503 101.57 11.702 101.57 11.6229C101.57 11.5529 101.593 11.4954 101.62 11.4954C101.648 11.4954 101.67 11.4496 101.67 11.3937C101.67 11.3377 101.693 11.2919 101.72 11.2919C101.748 11.2919 101.77 11.2344 101.77 11.1645C101.77 11.0853 101.799 11.037 101.845 11.037C101.89 11.037 101.921 10.9903 101.921 10.9218C101.921 10.8586 101.977 10.7638 102.046 10.711C102.115 10.6584 102.171 10.5728 102.171 10.5206C102.171 10.4686 102.194 10.4258 102.221 10.4258C102.249 10.4258 102.271 10.3916 102.271 10.3494C102.271 10.3076 102.294 10.273 102.321 10.273C102.349 10.273 102.371 10.2272 102.371 10.1713C102.371 10.1147 102.405 10.0695 102.446 10.0695C102.488 10.0695 102.522 10.0448 102.522 10.0148C102.522 9.94421 102.649 9.81464 102.718 9.81464C102.748 9.81464 102.772 9.79081 102.772 9.76147C102.772 9.6924 103.002 9.45832 103.07 9.45832C103.099 9.45832 103.123 9.42378 103.123 9.38192C103.123 9.33852 103.168 9.30552 103.227 9.30552C103.324 9.30552 103.473 9.19795 103.473 9.12705C103.473 9.07418 103.612 8.94889 103.67 8.94889C103.7 8.94889 103.724 8.92597 103.724 8.89785C103.724 8.87004 103.77 8.84712 103.825 8.84712C103.881 8.84712 103.94 8.81259 103.956 8.77072C103.972 8.72855 104.027 8.69432 104.08 8.69432C104.132 8.69432 104.174 8.67141 104.174 8.64329C104.174 8.61518 104.231 8.59226 104.3 8.59226C104.377 8.59226 104.425 8.56353 104.425 8.51586C104.425 8.46849 104.472 8.43946 104.55 8.43946C104.619 8.43946 104.675 8.41654 104.675 8.38873C104.675 8.36061 104.732 8.33769 104.801 8.33769C104.869 8.33769 104.926 8.31477 104.926 8.28666C104.926 8.25885 105.005 8.23593 105.101 8.23593C105.223 8.23593 105.276 8.2127 105.276 8.15953C105.276 8.10177 105.338 8.08313 105.527 8.08313C105.665 8.08313 105.777 8.06021 105.777 8.0321C105.777 8.00245 105.944 7.98106 106.178 7.98106C106.501 7.98106 106.578 7.96639 106.578 7.90466C106.578 7.79281 107.406 7.79281 107.448 7.90466C107.47 7.96395 107.568 7.98106 107.879 7.98106C108.114 7.98106 108.281 8.00245 108.281 8.0321C108.281 8.06021 108.394 8.08313 108.532 8.08313C108.721 8.08313 108.782 8.10177 108.782 8.15953C108.782 8.2127 108.835 8.23593 108.957 8.23593C109.054 8.23593 109.133 8.25885 109.133 8.28666C109.133 8.31477 109.189 8.33769 109.258 8.33769C109.327 8.33769 109.383 8.36061 109.383 8.38873C109.383 8.41654 109.439 8.43946 109.508 8.43946C109.586 8.43946 109.634 8.46849 109.634 8.51586C109.634 8.55833 109.678 8.59226 109.734 8.59226C109.789 8.59226 109.834 8.61518 109.834 8.64329C109.834 8.67141 109.89 8.69432 109.959 8.69432C110.037 8.69432 110.084 8.72305 110.084 8.77072C110.084 8.81626 110.13 8.84712 110.199 8.84712C110.261 8.84712 110.345 8.89296 110.385 8.94889C110.424 9.00481 110.486 9.05065 110.521 9.05065C110.556 9.05065 110.585 9.0754 110.585 9.10535C110.585 9.1952 110.721 9.30552 110.832 9.30552C110.889 9.30552 110.936 9.32997 110.936 9.35991C110.936 9.4192 111.059 9.56008 111.111 9.56008C111.163 9.56008 111.286 9.70096 111.286 9.76025C111.286 9.79019 111.31 9.81464 111.34 9.81464C111.409 9.81464 111.537 9.94421 111.537 10.0148C111.537 10.0448 111.559 10.0695 111.587 10.0695C111.614 10.0695 111.637 10.1153 111.637 10.1713C111.637 10.2278 111.67 10.273 111.712 10.273C111.753 10.273 111.787 10.2978 111.787 10.3277C111.787 10.3983 111.915 10.5279 111.984 10.5279C112.014 10.5279 112.038 10.5851 112.038 10.655C112.038 10.7253 112.06 10.7825 112.088 10.7825C112.115 10.7825 112.138 10.8298 112.138 10.8879C112.138 11.0007 112.246 11.1391 112.334 11.1391C112.364 11.1391 112.388 11.1962 112.388 11.2662C112.388 11.3365 112.411 11.3937 112.438 11.3937C112.466 11.3937 112.488 11.4737 112.488 11.5718C112.488 11.6965 112.511 11.7503 112.563 11.7503C112.61 11.7503 112.639 11.7983 112.639 11.8774C112.639 11.9477 112.661 12.0049 112.689 12.0049C112.716 12.0049 112.739 12.1066 112.739 12.231C112.739 12.3554 112.761 12.4715 112.789 12.4886C112.816 12.506 112.839 12.6219 112.839 12.7465C112.839 12.9134 112.859 12.9727 112.914 12.9727C112.978 12.9727 112.989 13.1077 112.989 13.884C112.989 14.647 112.977 14.8001 112.914 14.8246C112.86 14.8457 112.839 14.9322 112.839 15.1357C112.839 15.2906 112.816 15.4174 112.789 15.4174C112.761 15.4174 112.739 15.5091 112.739 15.621C112.739 15.7331 112.716 15.8248 112.689 15.8248C112.661 15.8248 112.639 15.9049 112.639 16.003C112.639 16.1277 112.616 16.1814 112.563 16.1814C112.517 16.1814 112.488 16.2294 112.488 16.3086C112.488 16.3789 112.466 16.436 112.438 16.436C112.411 16.436 112.388 16.5161 112.388 16.6142C112.388 16.7123 112.364 16.7926 112.334 16.7926C112.25 16.7926 112.138 16.9289 112.138 17.0316C112.138 17.083 112.081 17.1679 112.013 17.2205C111.944 17.273 111.887 17.3589 111.887 17.4109C111.887 17.4631 111.865 17.5056 111.837 17.5056C111.81 17.5056 111.787 17.5398 111.787 17.582C111.787 17.6239 111.763 17.6584 111.733 17.6584C111.652 17.6584 111.537 17.7932 111.537 17.8876C111.537 17.982 111.421 18.1168 111.34 18.1168C111.31 18.1168 111.286 18.1412 111.286 18.1715C111.286 18.2308 111.163 18.3713 111.111 18.3713C111.069 18.3713 110.936 18.5073 110.936 18.5498C110.936 18.6207 110.787 18.728 110.689 18.728C110.63 18.728 110.585 18.761 110.585 18.8044C110.585 18.8462 110.551 18.8808 110.51 18.8808C110.469 18.8808 110.435 18.9037 110.435 18.9318C110.435 18.9596 110.39 18.9825 110.335 18.9825C110.28 18.9825 110.235 19.0055 110.235 19.0336C110.235 19.0617 110.201 19.0846 110.159 19.0846C110.118 19.0846 110.084 19.1188 110.084 19.161C110.084 19.2084 110.037 19.2374 109.959 19.2374C109.89 19.2374 109.834 19.2603 109.834 19.2881C109.834 19.3163 109.789 19.3392 109.734 19.3392C109.678 19.3392 109.634 19.3731 109.634 19.4156C109.634 19.4632 109.586 19.492 109.508 19.492C109.439 19.492 109.383 19.5149 109.383 19.543C109.383 19.5708 109.304 19.5937 109.208 19.5937C109.111 19.5937 109.033 19.6167 109.033 19.6448C109.033 19.6729 108.976 19.6958 108.907 19.6958C108.829 19.6958 108.782 19.7245 108.782 19.7722C108.782 19.83 108.721 19.8486 108.532 19.8486H108.281V20.0268C108.281 20.1967 108.29 20.2049 108.456 20.2049C108.553 20.2049 108.632 20.2278 108.632 20.256C108.632 20.2841 108.688 20.307 108.757 20.307C108.835 20.307 108.882 20.3357 108.882 20.3834C108.882 20.4253 108.916 20.4598 108.957 20.4598C108.999 20.4598 109.033 20.4827 109.033 20.5105C109.033 20.5386 109.078 20.5616 109.133 20.5616C109.188 20.5616 109.233 20.5845 109.233 20.6126C109.233 20.6404 109.267 20.6633 109.308 20.6633C109.349 20.6633 109.383 20.6881 109.383 20.718C109.383 20.7886 109.511 20.9182 109.58 20.9182C109.61 20.9182 109.634 20.942 109.634 20.9714C109.634 21.0404 109.864 21.2745 109.932 21.2745C109.961 21.2745 109.984 21.309 109.984 21.3509C109.984 21.3931 110.007 21.4273 110.034 21.4273C110.062 21.4273 110.084 21.4701 110.084 21.522C110.084 21.5743 110.141 21.6599 110.21 21.7124C110.278 21.765 110.335 21.8503 110.335 21.9016C110.335 22.0043 110.447 22.1406 110.531 22.1406C110.561 22.1406 110.585 22.1977 110.585 22.2677C110.585 22.338 110.608 22.3951 110.635 22.3951C110.663 22.3951 110.685 22.4526 110.685 22.5226C110.685 22.6017 110.714 22.6497 110.76 22.6497C110.805 22.6497 110.836 22.6968 110.836 22.7658C110.836 22.8297 110.881 22.915 110.936 22.9553C110.991 22.9956 111.036 23.0812 111.036 23.1448C111.036 23.2141 111.066 23.2609 111.111 23.2609C111.153 23.2609 111.186 23.3067 111.186 23.3666C111.186 23.4794 111.294 23.6175 111.383 23.6175C111.413 23.6175 111.437 23.675 111.437 23.745C111.437 23.8149 111.459 23.8721 111.487 23.8721C111.514 23.8721 111.537 23.9295 111.537 23.9995C111.537 24.0695 111.559 24.127 111.587 24.127C111.614 24.127 111.637 24.1728 111.637 24.2287C111.637 24.2846 111.665 24.3308 111.7 24.3311C111.764 24.3314 111.887 24.5548 111.887 24.6718C111.887 24.7082 111.921 24.7381 111.962 24.7381C112.004 24.7381 112.038 24.7834 112.038 24.8399C112.038 24.8958 112.06 24.9417 112.088 24.9417C112.115 24.9417 112.138 24.9906 112.138 25.0505C112.138 25.1104 112.194 25.2124 112.263 25.2772C112.332 25.3423 112.388 25.4306 112.388 25.474C112.388 25.5174 112.411 25.5529 112.438 25.5529C112.466 25.5529 112.488 25.5874 112.488 25.6293C112.488 25.6769 112.536 25.7057 112.614 25.7057C112.691 25.7057 112.739 25.6769 112.739 25.6293C112.739 25.5819 112.786 25.5529 112.864 25.5529C112.933 25.5529 112.989 25.5299 112.989 25.5021C112.989 25.474 113.034 25.4511 113.089 25.4511C113.144 25.4511 113.189 25.4282 113.189 25.4001C113.189 25.3723 113.246 25.3493 113.315 25.3493C113.393 25.3493 113.44 25.3203 113.44 25.2729C113.44 25.2295 113.485 25.1965 113.544 25.1965C113.655 25.1965 113.79 25.0862 113.79 24.9964C113.79 24.9664 113.847 24.9417 113.916 24.9417C113.985 24.9417 114.041 24.9188 114.041 24.8909C114.041 24.8628 114.075 24.8399 114.116 24.8399C114.157 24.8399 114.191 24.817 114.191 24.7889C114.191 24.7611 114.236 24.7381 114.291 24.7381C114.347 24.7381 114.391 24.7042 114.391 24.6617C114.391 24.6196 114.425 24.5853 114.467 24.5853C114.508 24.5853 114.542 24.5624 114.542 24.5343C114.542 24.5062 114.598 24.4833 114.667 24.4833C114.736 24.4833 114.792 24.4594 114.792 24.4301C114.792 24.361 115.022 24.127 115.09 24.127C115.119 24.127 115.143 24.0924 115.143 24.0506C115.143 24.0072 115.188 23.9742 115.247 23.9742C115.345 23.9742 115.493 23.8666 115.493 23.7957C115.493 23.7532 115.627 23.6175 115.669 23.6175C115.721 23.6175 115.844 23.4766 115.844 23.4174C115.844 23.3874 115.868 23.363 115.898 23.363C115.956 23.363 116.094 23.2374 116.094 23.1845C116.094 23.142 116.228 23.0063 116.27 23.0063C116.322 23.0063 116.445 22.8655 116.445 22.8062C116.445 22.7762 116.469 22.7518 116.499 22.7518C116.557 22.7518 116.695 22.6262 116.695 22.5733C116.695 22.5204 116.834 22.3951 116.892 22.3951C116.922 22.3951 116.946 22.3478 116.946 22.2897C116.946 22.1769 117.054 22.0385 117.143 22.0385C117.172 22.0385 117.196 22.0092 117.196 21.9734C117.196 21.9377 117.241 21.8753 117.296 21.835C117.351 21.7946 117.396 21.7091 117.396 21.6455C117.396 21.5816 117.421 21.5294 117.45 21.5294C117.539 21.5294 117.647 21.3909 117.647 21.2782C117.647 21.2201 117.671 21.1728 117.701 21.1728C117.789 21.1728 117.897 21.0346 117.897 20.9219C117.897 20.8638 117.92 20.8161 117.948 20.8161C117.975 20.8161 117.997 20.7819 117.997 20.7397C117.997 20.6979 118.031 20.6633 118.073 20.6633C118.114 20.6633 118.148 20.6181 118.148 20.5616C118.148 20.5056 118.17 20.4598 118.198 20.4598C118.226 20.4598 118.248 20.4023 118.248 20.3324C118.248 20.2532 118.276 20.2049 118.323 20.2049C118.37 20.2049 118.398 20.1569 118.398 20.0778C118.398 20.0078 118.421 19.9504 118.448 19.9504C118.476 19.9504 118.498 19.8932 118.498 19.8229C118.498 19.7529 118.521 19.6958 118.549 19.6958C118.576 19.6958 118.598 19.6384 118.598 19.5684C118.598 19.4892 118.627 19.4409 118.674 19.4409C118.715 19.4409 118.749 19.3957 118.749 19.3392C118.749 19.2832 118.771 19.2374 118.799 19.2374C118.827 19.2374 118.849 19.1457 118.849 19.0336C118.849 18.8866 118.87 18.8297 118.924 18.8297C118.966 18.8297 118.999 18.7845 118.999 18.728C118.999 18.6721 119.022 18.6262 119.049 18.6262C119.077 18.6262 119.099 18.5345 119.099 18.4224C119.099 18.3102 119.122 18.2185 119.15 18.2185C119.177 18.2185 119.199 18.1385 119.199 18.0404C119.199 17.916 119.222 17.8622 119.275 17.8622C119.327 17.8622 119.35 17.8084 119.35 17.6838C119.35 17.5857 119.372 17.5056 119.4 17.5056C119.428 17.5056 119.45 17.391 119.45 17.251C119.45 17.0585 119.468 16.9962 119.525 16.9962C119.584 16.9962 119.6 16.9283 119.6 16.6906C119.6 16.521 119.623 16.385 119.65 16.385C119.679 16.385 119.7 16.2322 119.7 16.0286C119.7 15.8248 119.722 15.672 119.751 15.672C119.782 15.672 119.8 15.3768 119.8 14.8879C119.8 14.2382 119.813 14.0991 119.876 14.0747C119.919 14.0575 119.951 13.9811 119.951 13.891C119.951 13.7877 119.926 13.7367 119.876 13.7367C119.812 13.7367 119.8 13.615 119.8 12.947C119.8 12.4547 119.782 12.1577 119.751 12.1577C119.721 12.1577 119.7 11.9963 119.7 11.7757C119.7 11.555 119.679 11.3937 119.65 11.3937C119.623 11.3937 119.6 11.2907 119.6 11.1645C119.6 10.9946 119.581 10.9353 119.525 10.9353C119.468 10.9353 119.45 10.8729 119.45 10.6807C119.45 10.5404 119.428 10.4258 119.4 10.4258C119.372 10.4258 119.35 10.3219 119.35 10.1951C119.35 10.0371 119.326 9.95522 119.275 9.93505C119.233 9.91885 119.199 9.86232 119.199 9.80945C119.199 9.75627 119.177 9.71288 119.15 9.71288C119.122 9.71288 119.099 9.6212 119.099 9.50905C119.099 9.3972 119.077 9.30552 119.049 9.30552C119.022 9.30552 118.999 9.22515 118.999 9.12705C118.999 9.00267 118.977 8.94889 118.924 8.94889C118.877 8.94889 118.849 8.90091 118.849 8.82145C118.849 8.75147 118.827 8.69432 118.799 8.69432C118.771 8.69432 118.749 8.64849 118.749 8.59226C118.749 8.53572 118.715 8.49049 118.674 8.49049C118.627 8.49049 118.598 8.44251 118.598 8.36306C118.598 8.29308 118.576 8.23593 118.549 8.23593C118.521 8.23593 118.498 8.17848 118.498 8.1085C118.498 8.03851 118.476 7.98106 118.448 7.98106C118.421 7.98106 118.398 7.92392 118.398 7.85393C118.398 7.77448 118.37 7.7265 118.323 7.7265C118.276 7.7265 118.248 7.67852 118.248 7.59907C118.248 7.52908 118.226 7.47194 118.198 7.47194C118.17 7.47194 118.148 7.4261 118.148 7.36987C118.148 7.31333 118.114 7.26811 118.073 7.26811C118.031 7.26811 117.997 7.23357 117.997 7.19171C117.997 7.14984 117.975 7.11531 117.948 7.11531C117.92 7.11531 117.897 7.06794 117.897 7.00988C117.897 6.89711 117.789 6.75868 117.701 6.75868C117.671 6.75868 117.647 6.71131 117.647 6.65325C117.647 6.54048 117.539 6.40235 117.45 6.40235C117.421 6.40235 117.396 6.36782 117.396 6.32595C117.396 6.28378 117.374 6.24955 117.347 6.24955C117.319 6.24955 117.296 6.20371 117.296 6.14748C117.296 6.09156 117.274 6.04572 117.246 6.04572C117.219 6.04572 117.196 6.01119 117.196 5.96932C117.196 5.92745 117.172 5.89292 117.143 5.89292C117.054 5.89292 116.946 5.75479 116.946 5.64203C116.946 5.58396 116.922 5.53629 116.892 5.53629C116.834 5.53629 116.695 5.411 116.695 5.35813C116.695 5.30526 116.557 5.17996 116.499 5.17996C116.469 5.17996 116.445 5.15521 116.445 5.12526C116.445 5.06598 116.322 4.9251 116.27 4.9251C116.228 4.9251 116.094 4.78941 116.094 4.74693C116.094 4.69407 115.956 4.56877 115.898 4.56877C115.868 4.56877 115.844 4.54402 115.844 4.51407C115.844 4.45478 115.721 4.3139 115.669 4.3139C115.627 4.3139 115.493 4.17822 115.493 4.13574C115.493 4.08532 115.356 3.95758 115.302 3.95758C115.276 3.95758 115.241 3.92304 115.225 3.88118C115.209 3.83901 115.155 3.80478 115.105 3.80478C115.056 3.80478 114.982 3.75894 114.943 3.70271C114.903 3.64679 114.819 3.60095 114.756 3.60095C114.693 3.60095 114.642 3.5765 114.642 3.54624C114.642 3.47596 114.515 3.34638 114.445 3.34638C114.416 3.34638 114.391 3.31185 114.391 3.26998C114.391 3.22751 114.347 3.19359 114.291 3.19359C114.236 3.19359 114.191 3.17067 114.191 3.14255C114.191 3.11444 114.157 3.09152 114.116 3.09152C114.075 3.09152 114.041 3.0686 114.041 3.04079C114.041 3.01267 113.985 2.98975 113.916 2.98975C113.838 2.98975 113.79 2.96103 113.79 2.91335C113.79 2.87088 113.746 2.83695 113.69 2.83695C113.635 2.83695 113.59 2.81404 113.59 2.78592C113.59 2.75811 113.556 2.73519 113.515 2.73519C113.474 2.73519 113.44 2.70066 113.44 2.65879C113.44 2.61112 113.393 2.58239 113.315 2.58239C113.246 2.58239 113.189 2.55947 113.189 2.53136C113.189 2.50324 113.144 2.48032 113.089 2.48032C113.034 2.48032 112.989 2.4574 112.989 2.42959C112.989 2.40148 112.933 2.37856 112.864 2.37856C112.786 2.37856 112.739 2.34983 112.739 2.30216C112.739 2.25449 112.691 2.22576 112.614 2.22576C112.545 2.22576 112.488 2.20284 112.488 2.17473C112.488 2.14692 112.432 2.124 112.363 2.124C112.285 2.124 112.238 2.09497 112.238 2.0476C112.238 1.99993 112.191 1.9712 112.113 1.9712C112.044 1.9712 111.987 1.94828 111.987 1.92016C111.987 1.89205 111.909 1.86913 111.812 1.86913C111.716 1.86913 111.637 1.84621 111.637 1.8184C111.637 1.79029 111.558 1.76737 111.462 1.76737C111.339 1.76737 111.286 1.74445 111.286 1.69097C111.286 1.63749 111.233 1.61457 111.111 1.61457C111.015 1.61457 110.936 1.59165 110.936 1.56353C110.936 1.53572 110.857 1.5128 110.76 1.5128C110.638 1.5128 110.585 1.48958 110.585 1.43641C110.585 1.37865 110.524 1.36001 110.335 1.36001C110.197 1.36001 110.084 1.33709 110.084 1.30897C110.084 1.28086 109.972 1.25794 109.834 1.25794C109.696 1.25794 109.583 1.23502 109.583 1.20721C109.583 1.17726 109.417 1.15617 109.183 1.15617C108.86 1.15617 108.782 1.1412 108.782 1.07977C108.782 1.01652 108.688 1.00338 108.231 1.00338C107.897 1.00338 107.68 0.983206 107.68 0.95234C107.68 0.92117 107.43 0.901611 107.029 0.901611C106.629 0.901611 106.378 0.92117 106.378 0.95234ZM43.0721 10.8589C43.0204 10.9221 42.8353 10.9353 41.989 10.9353C41.3421 10.9353 40.9685 10.9539 40.9685 10.9863C40.9685 11.0159 40.8014 11.037 40.568 11.037C40.3342 11.037 40.1671 11.0584 40.1671 11.0881C40.1671 11.1162 40.0793 11.1391 39.9721 11.1391C39.8452 11.1391 39.7671 11.1657 39.7485 11.2155C39.7317 11.2601 39.6565 11.2919 39.5679 11.2919C39.4843 11.2919 39.4158 11.3148 39.4158 11.3426C39.4158 11.3707 39.3623 11.3937 39.2968 11.3937C39.2313 11.3937 39.1496 11.4279 39.1153 11.4701C39.0811 11.5119 39.0222 11.5465 38.984 11.5465C38.9461 11.5465 38.9152 11.5694 38.9152 11.5975C38.9152 11.6253 38.8701 11.6482 38.8148 11.6482C38.7598 11.6482 38.7147 11.6711 38.7147 11.6993C38.7147 11.7274 38.6808 11.7503 38.6396 11.7503C38.5982 11.7503 38.5645 11.7738 38.5645 11.8029C38.5645 11.8316 38.5251 11.8704 38.4767 11.889C38.3454 11.9395 38.1137 12.1894 38.1137 12.2811C38.1137 12.3251 38.0801 12.3615 38.0386 12.3615C37.9972 12.3615 37.9635 12.3957 37.9635 12.4379C37.9635 12.4797 37.941 12.5143 37.9133 12.5143C37.886 12.5143 37.8634 12.5714 37.8634 12.6414C37.8634 12.7209 37.8349 12.7688 37.7883 12.7688C37.7465 12.7688 37.7132 12.8141 37.7132 12.8706C37.7132 12.9268 37.6906 12.9727 37.663 12.9727C37.6353 12.9727 37.6128 13.0298 37.6128 13.0998C37.6128 13.1701 37.5903 13.2272 37.5629 13.2272C37.5353 13.2272 37.5127 13.2819 37.5127 13.3492C37.5127 13.4161 37.4791 13.4842 37.4376 13.5004C37.3862 13.5203 37.3625 13.6022 37.3625 13.7605C37.3625 13.8873 37.34 13.9912 37.3123 13.9912C37.285 13.9912 37.2615 14.1229 37.2606 14.284C37.2597 14.4603 37.23 14.6162 37.1855 14.6758C37.077 14.8218 37.077 17.2862 37.1855 17.4322C37.23 17.4918 37.2597 17.6477 37.2606 17.824C37.2615 17.9851 37.285 18.1168 37.3123 18.1168C37.34 18.1168 37.3625 18.2173 37.3625 18.3405C37.3625 18.4924 37.3865 18.5737 37.4376 18.5935C37.4815 18.6106 37.5127 18.687 37.5127 18.7772C37.5127 18.8621 37.5353 18.9318 37.5629 18.9318C37.5903 18.9318 37.6128 18.989 37.6128 19.0589C37.6128 19.1292 37.6353 19.1864 37.663 19.1864C37.6906 19.1864 37.7132 19.2328 37.7132 19.29C37.7132 19.3468 37.7468 19.4064 37.7883 19.4226C37.8295 19.4388 37.8634 19.4837 37.8634 19.5228C37.8634 19.562 37.886 19.5937 37.9133 19.5937C37.941 19.5937 37.9635 19.631 37.9635 19.6765C37.9635 19.7218 38.0987 19.8929 38.264 20.0561C38.4293 20.2196 38.5645 20.3773 38.5645 20.4066C38.5645 20.4357 38.5933 20.4598 38.6285 20.4598C38.6637 20.4598 38.7253 20.5056 38.7649 20.5616C38.8046 20.6175 38.8884 20.6633 38.9512 20.6633C39.0141 20.6633 39.0654 20.6881 39.0654 20.718C39.0654 20.8005 39.1977 20.9182 39.2908 20.9182C39.3359 20.9182 39.4068 20.9524 39.448 20.9946C39.4895 21.0365 39.5655 21.071 39.6169 21.071C39.6682 21.071 39.7244 21.0939 39.7416 21.1217C39.7584 21.1498 39.8374 21.1728 39.9168 21.1728C39.9961 21.1728 40.0751 21.1957 40.092 21.2238C40.1091 21.2516 40.2882 21.2745 40.4904 21.2745C40.7705 21.2745 40.8646 21.2929 40.8865 21.3509C40.925 21.453 41.3652 21.4542 41.4974 21.3527C41.5599 21.3045 41.715 21.2773 41.9325 21.2763C42.1237 21.2754 42.2706 21.2525 42.2706 21.2238C42.2706 21.1957 42.3481 21.1728 42.4431 21.1728C42.5378 21.1728 42.6294 21.1498 42.6462 21.1217C42.6634 21.0939 42.7196 21.071 42.7709 21.071C42.8223 21.071 42.8954 21.0423 42.9326 21.0071C43.0393 20.9078 43.2136 20.8161 43.2968 20.8161C43.3383 20.8161 43.3726 20.7917 43.3726 20.7617C43.3726 20.6829 43.5033 20.5616 43.5883 20.5616C43.671 20.5616 44.0736 20.1811 44.0736 20.1032C44.0736 20.075 44.1034 20.0521 44.1394 20.0521C44.1758 20.0521 44.2362 19.9721 44.2741 19.874C44.3119 19.7759 44.3642 19.6958 44.3907 19.6958C44.4598 19.6958 44.5713 19.5323 44.5731 19.4284C44.574 19.3792 44.5971 19.3392 44.6248 19.3392C44.6521 19.3392 44.6746 19.282 44.6746 19.2117C44.6746 19.1326 44.7032 19.0846 44.7498 19.0846C44.8023 19.0846 44.8249 19.0308 44.8249 18.9061C44.8249 18.808 44.8474 18.728 44.8751 18.728C44.9027 18.728 44.9259 18.6534 44.9268 18.5623C44.9277 18.4713 44.9613 18.3524 45.0019 18.298C45.1104 18.1522 45.1089 16.5793 45.0004 16.4687C44.9589 16.4268 44.9253 16.3104 44.9253 16.2105C44.9253 16.1105 44.9027 16.0286 44.8751 16.0286C44.8474 16.0286 44.8249 15.959 44.8249 15.874C44.8249 15.7839 44.7936 15.7075 44.7498 15.6903C44.7086 15.6745 44.6746 15.6063 44.6746 15.5394C44.6746 15.4722 44.6521 15.4174 44.6248 15.4174C44.5971 15.4174 44.5746 15.3799 44.5746 15.334C44.5746 15.2882 44.5184 15.1977 44.4493 15.1326C44.3804 15.0678 44.3243 14.9927 44.3243 14.9658C44.3243 14.9389 44.2452 14.8341 44.1488 14.7332C44.0523 14.6324 43.9736 14.5309 43.9736 14.5083C43.9736 14.4854 43.9174 14.4362 43.8483 14.3986C43.7794 14.3613 43.7232 14.3045 43.7232 14.2724C43.7232 14.2403 43.6442 14.1825 43.5477 14.144C43.4513 14.1055 43.3726 14.0554 43.3726 14.0328C43.3726 14.0099 43.3413 13.9912 43.3028 13.9912C43.2644 13.9912 43.2199 13.9567 43.2043 13.9148C43.1883 13.8727 43.1409 13.8384 43.0988 13.8384C43.0564 13.8384 43.0219 13.8155 43.0219 13.7874C43.0219 13.7596 42.9753 13.7367 42.9182 13.7367C42.8611 13.7367 42.7806 13.7021 42.7394 13.6603C42.6979 13.6181 42.6108 13.5839 42.5456 13.5839C42.4804 13.5839 42.413 13.561 42.3959 13.5328C42.3788 13.5047 42.2436 13.4818 42.0954 13.4818C41.9473 13.4818 41.812 13.4589 41.7949 13.4311C41.7772 13.4017 41.5191 13.38 41.1909 13.38C40.8423 13.38 40.6178 13.3999 40.6178 13.4311C40.6178 13.4589 40.4952 13.4818 40.3456 13.4818C40.1956 13.4818 40.0589 13.5047 40.0421 13.5328C40.025 13.561 39.9561 13.5839 39.8888 13.5839C39.8134 13.5839 39.7665 13.6132 39.7665 13.6603C39.7665 13.711 39.7163 13.7367 39.6163 13.7367C39.5336 13.7367 39.466 13.7596 39.466 13.7874C39.466 13.8155 39.4321 13.8384 39.3909 13.8384C39.3494 13.8384 39.3158 13.8727 39.3158 13.9148C39.3158 13.9625 39.2686 13.9912 39.1904 13.9912C39.1216 13.9912 39.0654 14.0117 39.0654 14.0368C39.0654 14.0618 39.0315 14.0954 38.9903 14.1116C38.9392 14.1315 38.9152 14.1089 38.9152 14.0404C38.9152 13.9854 38.9488 13.9402 38.9903 13.9402C39.0315 13.9402 39.0654 13.9124 39.0654 13.8782C39.0654 13.7825 39.2854 13.3311 39.3326 13.3299C39.3554 13.3296 39.4507 13.2489 39.5444 13.1508C39.6382 13.0527 39.7488 12.9727 39.7906 12.9727C39.8326 12.9727 39.8666 12.9498 39.8666 12.9216C39.8666 12.8935 39.9231 12.8706 39.9919 12.8706C40.0697 12.8706 40.1172 12.8419 40.1172 12.7942C40.1172 12.7383 40.1743 12.7178 40.3324 12.7178C40.4511 12.7178 40.5692 12.6964 40.5953 12.6704C40.6497 12.616 41.1897 12.5794 42.7175 12.5262C43.5042 12.4987 43.7957 12.4718 43.811 12.425C43.8254 12.3807 43.9603 12.3615 44.2533 12.3615H44.6746V11.5718V10.7825H43.9044C43.2812 10.7825 43.1225 10.7971 43.0721 10.8589ZM0 16.1558V21.1728H0.826384H1.65277V19.0336V16.8944H2.52603C3.05462 16.8944 3.41192 16.8742 3.43055 16.8434C3.44768 16.8156 3.65021 16.7926 3.8807 16.7926C4.18661 16.7926 4.32034 16.7719 4.37503 16.7162C4.4165 16.6741 4.51957 16.6398 4.60401 16.6398C4.68875 16.6398 4.75787 16.6169 4.75787 16.5888C4.75787 16.5607 4.81436 16.5378 4.88318 16.5378C4.96101 16.5378 5.00819 16.509 5.00819 16.4614C5.00819 16.414 5.05567 16.385 5.1335 16.385C5.20231 16.385 5.25881 16.362 5.25881 16.3342C5.25881 16.3061 5.28225 16.2832 5.3108 16.2832C5.40816 16.2832 5.79371 15.9015 5.83818 15.7612C5.85381 15.712 5.89888 15.672 5.93825 15.672C5.97761 15.672 6.01007 15.6375 6.01007 15.5956C6.01007 15.5534 6.03261 15.5192 6.05995 15.5192C6.0876 15.5192 6.11014 15.4746 6.11014 15.4205C6.11014 15.3661 6.13267 15.3074 6.16032 15.29C6.18767 15.2726 6.2102 15.1934 6.2102 15.1143C6.2102 15.033 6.24296 14.9569 6.28533 14.9404C6.34813 14.916 6.36045 14.7656 6.36045 14.0245C6.36045 13.2984 6.34693 13.1264 6.28533 13.0744C6.24416 13.0396 6.2102 12.9565 6.2102 12.8899C6.2102 12.8232 6.18767 12.7688 6.16032 12.7688C6.13267 12.7688 6.11014 12.7117 6.11014 12.6414C6.11014 12.5714 6.0876 12.5143 6.05995 12.5143C6.03261 12.5143 6.01007 12.481 6.01007 12.44C6.01007 12.3994 5.95357 12.3086 5.88476 12.2386C5.81594 12.1687 5.75945 12.0874 5.75945 12.058C5.75945 12.0287 5.7312 12.0049 5.69634 12.0049C5.66148 12.0049 5.59087 11.9477 5.53918 11.8774C5.48719 11.8074 5.40816 11.7503 5.36278 11.7503C5.31771 11.7503 5.24829 11.7045 5.20863 11.6482C5.16896 11.5923 5.08512 11.5465 5.02231 11.5465C4.9541 11.5465 4.90812 11.5156 4.90812 11.4701C4.90812 11.4166 4.85523 11.3937 4.73293 11.3937C4.63647 11.3937 4.55743 11.3707 4.55743 11.3426C4.55743 11.3148 4.44324 11.2919 4.30351 11.2919C4.14454 11.2919 4.02134 11.2632 3.97446 11.2155C3.91015 11.1501 3.61596 11.1391 1.94967 11.1391H0V16.1558ZM3.93149 12.9216C3.94861 12.9498 4.01743 12.9727 4.08474 12.9727C4.15206 12.9727 4.20705 12.9971 4.20705 13.0271C4.20705 13.0864 4.33025 13.2272 4.38224 13.2272C4.45196 13.2272 4.55743 13.3785 4.55743 13.4781C4.55743 13.5362 4.57997 13.5839 4.60762 13.5839C4.68004 13.5839 4.66982 14.3008 4.595 14.4646C4.56074 14.5401 4.51566 14.6018 4.49493 14.6021C4.4742 14.6021 4.45737 14.6483 4.45737 14.7042C4.45737 14.761 4.42401 14.8063 4.38224 14.8063C4.34077 14.8063 4.30712 14.8405 4.30712 14.8827C4.30712 14.9245 4.26324 14.9591 4.21005 14.9591C4.15656 14.9591 4.09887 14.982 4.08174 15.0098C4.06461 15.0379 4.00872 15.0608 3.95703 15.0608C3.90564 15.0608 3.82962 15.095 3.78845 15.1372C3.72654 15.2002 3.53212 15.2136 2.68289 15.2136H1.65277V14.0423V12.8706H2.77665C3.47172 12.8706 3.91225 12.8902 3.93149 12.9216ZM10.1167 13.4311C10.1167 13.4589 9.99414 13.4818 9.84449 13.4818C9.69454 13.4818 9.55781 13.5047 9.54098 13.5328C9.52385 13.561 9.45774 13.5839 9.39374 13.5839C9.33003 13.5839 9.24949 13.6181 9.21524 13.6603C9.18098 13.7021 9.09954 13.7367 9.03403 13.7367C8.96852 13.7367 8.91473 13.7596 8.91473 13.7874C8.91473 13.8155 8.88108 13.8384 8.83961 13.8384C8.79844 13.8384 8.76448 13.8727 8.76448 13.9148C8.76448 13.9604 8.7185 13.9912 8.65029 13.9912C8.58779 13.9912 8.50364 14.0371 8.46398 14.093C8.42431 14.1492 8.36211 14.1951 8.32575 14.1951C8.24521 14.1951 7.66284 14.795 7.66284 14.8778C7.66284 14.9102 7.61776 14.9694 7.56247 15.0098C7.50748 15.0501 7.4624 15.1357 7.4624 15.1993C7.4624 15.2631 7.43235 15.3154 7.39569 15.3154C7.33108 15.3154 7.2809 15.4 7.12253 15.7738C7.08106 15.8719 7.02787 15.992 7.00413 16.0406C6.98069 16.0892 6.96146 16.2196 6.96146 16.3306C6.96146 16.4412 6.93892 16.546 6.91158 16.5634C6.88183 16.5821 6.86139 16.9036 6.86139 17.3558C6.86139 17.8292 6.88033 18.1168 6.91158 18.1168C6.93892 18.1168 6.96146 18.2302 6.96146 18.3683C6.96146 18.5067 6.984 18.6342 7.01165 18.6516C7.03929 18.669 7.06183 18.7396 7.06183 18.809C7.06183 18.8783 7.09549 18.948 7.13696 18.9642C7.17812 18.9804 7.21208 19.0324 7.21208 19.0797C7.21208 19.2133 7.33018 19.4403 7.3999 19.4406C7.43415 19.4409 7.4624 19.4984 7.4624 19.5684C7.4624 19.6384 7.48494 19.6958 7.51258 19.6958C7.53993 19.6958 7.56247 19.7203 7.56247 19.7502C7.56247 19.8208 7.68988 19.9504 7.7593 19.9504C7.78875 19.9504 7.81309 19.9794 7.81309 20.0145C7.81309 20.1108 8.25753 20.5616 8.35249 20.5616C8.37323 20.5616 8.43243 20.619 8.48411 20.689C8.5361 20.759 8.62024 20.8161 8.67133 20.8161C8.72271 20.8161 8.76448 20.839 8.76448 20.8672C8.76448 20.8953 8.82098 20.9182 8.88979 20.9182C8.96762 20.9182 9.0151 20.9469 9.0151 20.9946C9.0151 21.042 9.06228 21.071 9.14011 21.071C9.20923 21.071 9.26542 21.0939 9.26542 21.1217C9.26542 21.1498 9.34415 21.1728 9.44061 21.1728C9.53708 21.1728 9.61611 21.1957 9.61611 21.2238C9.61611 21.2528 9.76426 21.2745 9.96049 21.2745C10.2054 21.2745 10.3229 21.2965 10.3674 21.3509C10.4067 21.3995 10.5173 21.4273 10.6703 21.4273C10.8175 21.4273 10.9401 21.3977 10.9861 21.3509C11.0387 21.2974 11.1673 21.2745 11.4155 21.2745C11.6181 21.2745 11.7695 21.2528 11.7695 21.2238C11.7695 21.1957 11.8485 21.1728 11.945 21.1728C12.0412 21.1728 12.1202 21.1498 12.1202 21.1217C12.1202 21.0939 12.1659 21.071 12.2221 21.071C12.278 21.071 12.3366 21.0365 12.3525 20.9946C12.3684 20.9524 12.4351 20.9182 12.5012 20.9182C12.5671 20.9182 12.6211 20.8953 12.6211 20.8672C12.6211 20.839 12.6662 20.8161 12.7212 20.8161C12.7768 20.8161 12.8213 20.7822 12.8213 20.7397C12.8213 20.6979 12.8552 20.6633 12.8964 20.6633C12.9532 20.6633 12.9715 20.7257 12.9715 20.9182V21.1728H13.7979H14.6243V17.3769V13.5811L13.8105 13.5952L12.9968 13.6092L12.9814 13.8497C12.9658 14.0957 12.8426 14.119 12.7062 13.902C12.6842 13.8672 12.622 13.8384 12.5686 13.8384C12.5148 13.8384 12.4709 13.8155 12.4709 13.7874C12.4709 13.7596 12.424 13.7367 12.3669 13.7367C12.3101 13.7367 12.2296 13.7021 12.1881 13.6603C12.1469 13.6181 12.0595 13.5839 11.9943 13.5839C11.9291 13.5839 11.8618 13.561 11.8446 13.5328C11.8278 13.5047 11.6911 13.4818 11.5411 13.4818C11.3915 13.4818 11.2689 13.4589 11.2689 13.4311C11.2689 13.3999 11.0435 13.38 10.6928 13.38C10.3421 13.38 10.1167 13.3999 10.1167 13.4311ZM16.7278 13.4311C16.7278 13.4589 16.6392 13.4818 16.5307 13.4818C16.4219 13.4818 16.3191 13.5047 16.3023 13.5328C16.2852 13.561 16.2155 13.5839 16.1476 13.5839C16.0793 13.5839 16.0105 13.6181 15.9949 13.6603C15.979 13.7021 15.912 13.7367 15.8461 13.7367C15.78 13.7367 15.7262 13.7596 15.7262 13.7874C15.7262 13.8155 15.6917 13.8384 15.6496 13.8384C15.6072 13.8384 15.5598 13.8727 15.5441 13.9148C15.5282 13.9567 15.4837 13.9912 15.4456 13.9912C15.4071 13.9912 15.3756 14.0142 15.3756 14.0423C15.3756 14.0701 15.3362 14.0939 15.2881 14.0948C15.1796 14.0967 15.0252 14.2116 15.0252 14.2898C15.0252 14.3216 14.9912 14.3479 14.95 14.3479C14.8211 14.3479 14.8572 14.6256 14.9999 14.7347C15.069 14.7873 15.1252 14.8591 15.1252 14.8946C15.1252 14.93 15.1589 14.9591 15.2004 14.9591C15.2421 14.9591 15.2755 15.0043 15.2755 15.0608C15.2755 15.1167 15.298 15.1626 15.3257 15.1626C15.353 15.1626 15.3756 15.1873 15.3756 15.2173C15.3756 15.2879 15.503 15.4174 15.5724 15.4174C15.6018 15.4174 15.6262 15.4477 15.6262 15.4853C15.6262 15.6494 15.8798 15.7038 15.9973 15.5647C16.058 15.4932 16.1794 15.4022 16.2675 15.3627C16.3555 15.323 16.4273 15.2619 16.4273 15.2268C16.4273 15.1916 16.4838 15.1626 16.5526 15.1626C16.6214 15.1626 16.6779 15.1397 16.6779 15.1119C16.6779 15.0837 16.7567 15.0608 16.8531 15.0608C16.9496 15.0608 17.0283 15.0379 17.0283 15.0098C17.0283 14.982 17.1173 14.9591 17.2258 14.9591C17.3342 14.9591 17.437 14.982 17.4541 15.0098C17.4713 15.0379 17.5416 15.0608 17.611 15.0608C17.7369 15.0608 17.88 15.1638 17.88 15.2546C17.88 15.2812 17.9136 15.3316 17.9551 15.3664C18.1119 15.499 18.0539 15.9559 17.8547 16.1524C17.7582 16.2478 17.6795 16.3504 17.6795 16.3807C17.6795 16.4174 17.4767 16.436 17.0785 16.436H16.4775V17.2254V18.015H17.0785C17.4457 18.015 17.6795 18.0346 17.6795 18.0658C17.6795 18.0939 17.7246 18.1168 17.7796 18.1168C17.8349 18.1168 17.88 18.1397 17.88 18.1678C17.88 18.1956 17.9136 18.2185 17.9551 18.2185C17.9962 18.2185 18.0302 18.2531 18.0302 18.2949C18.0302 18.3371 18.0527 18.3713 18.0801 18.3713C18.1077 18.3713 18.1303 18.4147 18.1303 18.4679C18.1303 18.5208 18.1639 18.5776 18.2054 18.5935C18.2565 18.6134 18.2805 18.695 18.2805 18.8475C18.2805 18.985 18.2514 19.0965 18.2054 19.1353C18.1639 19.1702 18.1303 19.2246 18.1303 19.2564C18.1303 19.3361 17.9058 19.5937 17.8364 19.5937C17.8051 19.5937 17.7796 19.6167 17.7796 19.6448C17.7796 19.6729 17.7036 19.6958 17.6104 19.6958C17.5175 19.6958 17.4133 19.73 17.379 19.7722C17.3448 19.8141 17.2519 19.8486 17.1726 19.8486C17.0779 19.8486 17.0283 19.8223 17.0283 19.7722C17.0283 19.719 16.976 19.6958 16.8561 19.6958C16.7612 19.6958 16.6698 19.6729 16.6527 19.6448C16.6359 19.6167 16.5782 19.5937 16.5247 19.5937C16.4712 19.5937 16.4273 19.5708 16.4273 19.543C16.4273 19.5149 16.3934 19.492 16.3522 19.492C16.3107 19.492 16.165 19.3758 16.0282 19.234C15.7542 18.9495 15.5195 18.9019 15.4056 19.1078C15.3263 19.2518 15.2403 19.3392 15.179 19.3392C15.1493 19.3392 15.1252 19.3651 15.1252 19.3969C15.1252 19.4577 14.8761 19.6955 14.8121 19.6955C14.7917 19.6958 14.7745 19.73 14.7745 19.7722C14.7745 19.8141 14.752 19.8486 14.7247 19.8486C14.697 19.8486 14.6745 19.9436 14.6745 20.0601C14.6745 20.2911 14.9885 20.6633 15.1835 20.6633C15.234 20.6633 15.2755 20.6881 15.2755 20.718C15.2755 20.806 15.4107 20.9182 15.5171 20.9182C15.5712 20.9182 15.6283 20.9524 15.6442 20.9946C15.6601 21.0365 15.7187 21.071 15.7746 21.071C15.8308 21.071 15.8765 21.0939 15.8765 21.1217C15.8765 21.1498 15.9552 21.1728 16.0517 21.1728C16.1482 21.1728 16.2272 21.1957 16.2272 21.2238C16.2272 21.2519 16.3588 21.2745 16.5223 21.2745C16.7383 21.2745 16.8252 21.295 16.8462 21.3509C16.8883 21.4622 17.7195 21.4622 17.7616 21.3509C17.7826 21.295 17.8694 21.2745 18.0855 21.2745C18.249 21.2745 18.3806 21.2519 18.3806 21.2238C18.3806 21.1957 18.4212 21.1728 18.4707 21.1728C18.6066 21.1728 18.8307 21.0539 18.831 20.9818C18.8313 20.9466 18.8782 20.9182 18.9356 20.9182C19.06 20.9182 19.4324 20.5286 19.4324 20.3984C19.4324 20.3479 19.4663 20.307 19.5075 20.307C19.5489 20.307 19.5826 20.2725 19.5826 20.2306C19.5826 20.1884 19.6051 20.1542 19.6328 20.1542C19.6604 20.1542 19.683 20.1084 19.683 20.0521C19.683 19.9962 19.7052 19.9504 19.7323 19.9504C19.7596 19.9504 19.7963 19.8581 19.814 19.7456C19.8317 19.6329 19.866 19.5283 19.8897 19.5134C19.9522 19.4742 19.9456 18.015 19.8831 18.015C19.8558 18.015 19.8332 17.9347 19.8332 17.8366C19.8332 17.7122 19.8104 17.6584 19.7581 17.6584C19.7112 17.6584 19.683 17.6104 19.683 17.531C19.683 17.461 19.6604 17.4038 19.6328 17.4038C19.6051 17.4038 19.5826 17.3763 19.5826 17.3427C19.5826 17.3094 19.5246 17.2202 19.4537 17.145C19.3194 17.0026 19.3452 16.84 19.5201 16.7263C19.5562 16.7028 19.5826 16.5802 19.5826 16.4366C19.5826 16.2994 19.6051 16.1732 19.6328 16.1558C19.6604 16.1387 19.683 15.9195 19.683 15.669C19.683 15.3994 19.6625 15.2136 19.6328 15.2136C19.6051 15.2136 19.5826 15.099 19.5826 14.9591C19.5826 14.7665 19.5643 14.7042 19.5075 14.7042C19.4609 14.7042 19.4324 14.6562 19.4324 14.5771C19.4324 14.5071 19.4098 14.4496 19.3825 14.4496C19.3548 14.4496 19.3323 14.4142 19.3323 14.3708C19.3323 14.266 18.9143 13.8384 18.8118 13.8384C18.7676 13.8384 18.7313 13.8155 18.7313 13.7874C18.7313 13.7596 18.6994 13.7367 18.6604 13.7367C18.6213 13.7367 18.581 13.7113 18.5708 13.6801C18.5474 13.6086 18.1979 13.4836 18.0176 13.4827C17.9419 13.4821 17.88 13.4589 17.88 13.4311C17.88 13.3999 17.6546 13.38 17.3039 13.38C16.9532 13.38 16.7278 13.3999 16.7278 13.4311ZM23.9651 13.4311C23.948 13.4589 23.8227 13.4818 23.6866 13.4818C23.5505 13.4818 23.4393 13.5047 23.4393 13.5328C23.4393 13.561 23.3602 13.5839 23.2638 13.5839C23.1415 13.5839 23.0886 13.6068 23.0886 13.6603C23.0886 13.7076 23.0414 13.7367 22.9633 13.7367C22.8945 13.7367 22.8383 13.7596 22.8383 13.7874C22.8383 13.8155 22.7818 13.8384 22.7129 13.8384C22.6351 13.8384 22.5876 13.8672 22.5876 13.9148C22.5876 13.9625 22.5405 13.9912 22.4626 13.9912C22.3938 13.9912 22.3373 14.0142 22.3373 14.0423C22.3373 14.0701 22.3148 14.093 22.2871 14.093C22.2598 14.093 22.2373 13.9784 22.2373 13.8384V13.5839H21.4608H20.6846V18.6528V23.722L21.4484 23.708L22.212 23.6939L22.2252 22.1788C22.2336 21.2268 22.2571 20.6633 22.288 20.6633C22.3151 20.6633 22.3373 20.6859 22.3373 20.7134C22.3373 20.7409 22.3938 20.7776 22.4626 20.7953C22.5314 20.8128 22.5876 20.8476 22.5876 20.8727C22.5876 20.8977 22.6345 20.9182 22.6916 20.9182C22.7484 20.9182 22.8289 20.9524 22.8704 20.9946C22.9116 21.0365 22.9876 21.071 23.039 21.071C23.0907 21.071 23.1466 21.0939 23.1637 21.1217C23.1808 21.1498 23.2596 21.1728 23.3389 21.1728C23.4185 21.1728 23.4973 21.1957 23.5144 21.2238C23.5312 21.2516 23.6989 21.2745 23.8867 21.2745C24.1292 21.2745 24.2464 21.2968 24.2906 21.3509C24.33 21.3992 24.4405 21.4273 24.5911 21.4273C24.7416 21.4273 24.8522 21.3992 24.8916 21.3509C24.9358 21.2968 25.053 21.2745 25.2955 21.2745C25.4833 21.2745 25.651 21.2516 25.6678 21.2238C25.6849 21.1957 25.7462 21.1728 25.8042 21.1728C25.9337 21.1728 26.294 21.0157 26.294 20.9591C26.294 20.9365 26.3334 20.9173 26.3815 20.9164C26.49 20.9145 26.6444 20.7996 26.6444 20.7214C26.6444 20.6896 26.6934 20.6633 26.7532 20.6633C26.8169 20.6633 26.9518 20.568 27.0781 20.4341C27.1968 20.3082 27.317 20.2049 27.3449 20.2049C27.3729 20.2049 27.3957 20.1762 27.3957 20.1408C27.3957 20.1053 27.4501 20.035 27.5165 19.9843C27.5826 19.9336 27.6643 19.8251 27.6977 19.7429C27.7311 19.661 27.7782 19.5937 27.8026 19.5937C27.8266 19.5937 27.8464 19.5366 27.8464 19.4666C27.8464 19.3871 27.875 19.3392 27.9216 19.3392C27.9685 19.3392 27.9967 19.2912 27.9967 19.2117C27.9967 19.1418 28.0192 19.0846 28.0469 19.0846C28.0745 19.0846 28.0971 19.0296 28.0971 18.9627C28.0971 18.8954 28.1307 18.8276 28.1722 18.8114C28.2155 18.7946 28.2473 18.7182 28.2473 18.6308C28.2473 18.5474 28.2699 18.4652 28.2972 18.4477C28.3249 18.4306 28.3474 18.2027 28.3474 17.9398C28.3474 17.6046 28.366 17.4564 28.4099 17.4402C28.4601 17.4216 28.4601 17.3956 28.4099 17.3091C28.3723 17.2443 28.3474 17.0182 28.3474 16.7422C28.3474 16.4702 28.327 16.2832 28.2972 16.2832C28.2699 16.2832 28.2473 16.2138 28.2473 16.1289C28.2473 16.0384 28.2161 15.9623 28.1722 15.9452C28.1256 15.9269 28.0971 15.8496 28.0971 15.7429C28.0971 15.6479 28.0745 15.5702 28.0469 15.5702C28.0192 15.5702 27.9967 15.5412 27.9967 15.5061C27.9967 15.4706 27.9405 15.3799 27.8717 15.3044C27.8029 15.2289 27.7464 15.1299 27.7464 15.0847C27.7464 14.9942 27.3816 14.6024 27.2977 14.6024C27.2689 14.6024 27.2454 14.5786 27.2454 14.5496C27.2454 14.4622 26.8818 14.1174 26.7072 14.0392C26.6177 13.9992 26.5444 13.9374 26.5444 13.9023C26.5444 13.8672 26.4882 13.8384 26.4191 13.8384C26.3502 13.8384 26.294 13.8155 26.294 13.7874C26.294 13.7596 26.2376 13.7367 26.1687 13.7367C26.0909 13.7367 26.0434 13.7076 26.0434 13.6603C26.0434 13.6068 25.9905 13.5839 25.8682 13.5839C25.7718 13.5839 25.693 13.561 25.693 13.5328C25.693 13.5044 25.5593 13.4818 25.3925 13.4818C25.2255 13.4818 25.092 13.4592 25.092 13.4311C25.092 13.4002 24.876 13.38 24.5439 13.38C24.2326 13.38 23.9826 13.402 23.9651 13.4311ZM32.229 13.4311C32.2119 13.4589 32.0766 13.4818 31.9285 13.4818C31.78 13.4818 31.6448 13.5047 31.628 13.5328C31.6109 13.561 31.5411 13.5839 31.4732 13.5839C31.405 13.5839 31.3362 13.6181 31.3206 13.6603C31.3046 13.7021 31.2433 13.7373 31.1844 13.7382C31.0597 13.74 30.9017 13.8491 30.9017 13.9332C30.9017 13.9653 30.8455 13.9912 30.7764 13.9912C30.7075 13.9912 30.6513 14.0142 30.6513 14.0423C30.6513 14.0701 30.6279 14.093 30.5991 14.093C30.5702 14.093 30.5197 14.1165 30.4864 14.1449C30.2249 14.3696 30.1201 14.4496 30.0879 14.4496C30.0672 14.4496 30.0503 14.4787 30.0503 14.5138C30.0503 14.5492 29.9938 14.6214 29.925 14.6739C29.8562 14.7265 29.7997 14.8023 29.7997 14.8423C29.7997 14.9279 29.6801 15.0608 29.6032 15.0608C29.5734 15.0608 29.5494 15.1183 29.5494 15.1883C29.5494 15.2582 29.5302 15.3154 29.5064 15.3154C29.4469 15.3154 29.1987 15.8123 29.1987 15.9315C29.1987 15.9849 29.1762 16.0286 29.1488 16.0286C29.1212 16.0286 29.0986 16.1402 29.0986 16.2771C29.0986 16.4357 29.0716 16.5482 29.0235 16.5888C28.9631 16.6398 28.9484 16.7957 28.9484 17.3846C28.9484 18.0016 28.9601 18.1168 29.0235 18.1168C29.0812 18.1168 29.0986 18.1816 29.0986 18.394C29.0986 18.5465 29.1212 18.6852 29.1488 18.7026C29.1762 18.7197 29.1987 18.79 29.1987 18.8585C29.1987 18.9266 29.2213 18.9825 29.2489 18.9825C29.2765 18.9825 29.2991 19.0256 29.2991 19.0782C29.2991 19.1308 29.3327 19.2026 29.3742 19.2374C29.4154 19.2722 29.4493 19.3321 29.4493 19.371C29.4493 19.4095 29.4719 19.4409 29.4992 19.4409C29.5269 19.4409 29.5494 19.4984 29.5494 19.5684C29.5494 19.6475 29.5776 19.6958 29.6245 19.6958C29.666 19.6958 29.6997 19.7193 29.6997 19.7484C29.6997 19.8553 30.4897 20.6633 30.594 20.6633C30.6195 20.6633 30.6535 20.6979 30.6694 20.7397C30.6853 20.7819 30.7439 20.8161 30.7998 20.8161C30.856 20.8161 30.9017 20.839 30.9017 20.8672C30.9017 20.8953 30.9443 20.9182 30.9966 20.9182C31.0486 20.9182 31.1042 20.9524 31.1201 20.9946C31.1361 21.0365 31.1947 21.071 31.2506 21.071C31.3067 21.071 31.3524 21.0939 31.3524 21.1217C31.3524 21.1498 31.43 21.1728 31.5246 21.1728C31.6196 21.1728 31.7109 21.1957 31.7281 21.2238C31.7452 21.2516 31.9056 21.2745 32.085 21.2745C32.3083 21.2745 32.4351 21.2987 32.4865 21.3509C32.5833 21.4496 32.9559 21.4505 33.0833 21.3527C33.1458 21.3045 33.3009 21.2773 33.5185 21.2763C33.7096 21.2754 33.8565 21.2525 33.8565 21.2238C33.8565 21.1957 33.934 21.1728 34.029 21.1728C34.1237 21.1728 34.2153 21.1498 34.2321 21.1217C34.2493 21.0939 34.307 21.071 34.3605 21.071C34.4139 21.071 34.4575 21.0365 34.4575 20.9946C34.4575 20.9469 34.505 20.9182 34.5828 20.9182C34.6516 20.9182 34.7081 20.8953 34.7081 20.8672C34.7081 20.839 34.7643 20.8161 34.8332 20.8161C34.9113 20.8161 34.9585 20.7874 34.9585 20.7397C34.9585 20.6979 34.9921 20.6633 35.0336 20.6633C35.0904 20.6633 35.1087 20.7257 35.1087 20.9182V21.1728H35.9351H36.7615V17.3782V13.5839H35.9351H35.1087V13.8485C35.1087 14.0545 35.0955 14.1 35.0486 14.0524C35.0156 14.0187 34.9479 13.9912 34.8984 13.9912C34.8488 13.9912 34.8082 13.9567 34.8082 13.9148C34.8082 13.8724 34.7637 13.8384 34.7081 13.8384C34.6529 13.8384 34.6078 13.8155 34.6078 13.7874C34.6078 13.7596 34.5543 13.7367 34.4888 13.7367C34.4233 13.7367 34.3415 13.7021 34.3073 13.6603C34.273 13.6181 34.1928 13.5839 34.1288 13.5839C34.0651 13.5839 33.999 13.561 33.9818 13.5328C33.9647 13.5047 33.8283 13.4818 33.6783 13.4818C33.5284 13.4818 33.4058 13.4589 33.4058 13.4311C33.4058 13.3999 33.1816 13.38 32.833 13.38C32.5049 13.38 32.2467 13.4017 32.229 13.4311ZM48.8066 13.4311C48.7897 13.4589 48.6545 13.4818 48.5061 13.4818C48.3579 13.4818 48.2227 13.5047 48.2055 13.5328C48.1887 13.561 48.1223 13.5839 48.0586 13.5839C47.9946 13.5839 47.9144 13.6181 47.8801 13.6603C47.8458 13.7021 47.7641 13.7367 47.6986 13.7367C47.6331 13.7367 47.5796 13.7596 47.5796 13.7874C47.5796 13.8155 47.545 13.8384 47.503 13.8384C47.4606 13.8384 47.4131 13.8727 47.3975 13.9148C47.3816 13.9567 47.3371 13.9912 47.2989 13.9912C47.2605 13.9912 47.2289 14.0126 47.2289 14.0386C47.2289 14.0649 47.1835 14.1009 47.1279 14.119C47.0724 14.1367 46.9546 14.2186 46.8662 14.3005C46.7782 14.3824 46.6883 14.4496 46.667 14.4496C46.6456 14.4496 46.6279 14.4787 46.6279 14.5138C46.6279 14.5492 46.5717 14.6214 46.5029 14.6739C46.4341 14.7265 46.3776 14.7949 46.3776 14.8261C46.3776 14.857 46.2986 14.9728 46.2024 15.0828C46.1059 15.1928 46.0269 15.3132 46.0269 15.3502C46.0269 15.3872 46.0044 15.4174 45.977 15.4174C45.9494 15.4174 45.9268 15.4722 45.9268 15.5394C45.9268 15.6063 45.8929 15.6745 45.8517 15.6903C45.8078 15.7075 45.7766 15.7839 45.7766 15.874C45.7766 15.959 45.754 16.0286 45.7264 16.0286C45.6991 16.0286 45.6765 16.1408 45.6765 16.2777C45.6765 16.4522 45.654 16.5356 45.6014 16.5564C45.5389 16.5806 45.5263 16.7205 45.5263 17.3782C45.5263 18.0358 45.5389 18.1758 45.6014 18.2002C45.654 18.2207 45.6765 18.3041 45.6765 18.4786C45.6765 18.6158 45.6991 18.728 45.7264 18.728C45.754 18.728 45.7766 18.7973 45.7766 18.8823C45.7766 18.9728 45.8078 19.0489 45.8517 19.066C45.8929 19.0822 45.9268 19.1503 45.9268 19.2172C45.9268 19.2845 45.9452 19.3392 45.9677 19.3392C45.9899 19.3392 46.0392 19.4192 46.0771 19.5173C46.1149 19.6154 46.1753 19.6958 46.2117 19.6958C46.2478 19.6958 46.2775 19.73 46.2775 19.7722C46.2775 19.8141 46.3001 19.8486 46.3274 19.8486C46.355 19.8486 46.3776 19.8837 46.3776 19.9265C46.3776 19.9693 46.4112 20.0176 46.4527 20.0338C46.4939 20.05 46.5278 20.0845 46.5278 20.1105C46.5278 20.1936 46.8972 20.5396 47.0663 20.6153C47.1559 20.6554 47.2295 20.7113 47.2304 20.7394C47.231 20.7678 47.372 20.8565 47.5435 20.9365C47.7148 21.0169 47.8942 21.1028 47.942 21.1275C47.9898 21.1523 48.0968 21.1728 48.18 21.1728C48.2629 21.1728 48.3309 21.1957 48.3309 21.2238C48.3309 21.2525 48.4781 21.2754 48.6689 21.2763C48.8865 21.2773 49.0415 21.3045 49.1044 21.3527C49.2297 21.449 49.6356 21.449 49.7613 21.3527C49.8253 21.3032 49.9818 21.2773 50.2216 21.2763C50.4293 21.2754 50.5846 21.2528 50.5846 21.2238C50.5846 21.1957 50.6634 21.1728 50.7598 21.1728C50.8563 21.1728 50.9353 21.1498 50.9353 21.1217C50.9353 21.0939 50.981 21.071 51.0369 21.071C51.0928 21.071 51.1517 21.0365 51.1676 20.9946C51.1832 20.9524 51.2503 20.9182 51.3161 20.9182C51.3822 20.9182 51.436 20.8953 51.436 20.8672C51.436 20.839 51.4705 20.8161 51.5129 20.8161C51.555 20.8161 51.6024 20.7819 51.6184 20.7397C51.634 20.6979 51.6737 20.6633 51.7058 20.6633C51.738 20.6633 51.7972 20.6175 51.8368 20.5616C51.8765 20.5056 51.9378 20.4598 51.973 20.4598C52.0081 20.4598 52.037 20.435 52.037 20.4051C52.037 20.3345 52.1644 20.2049 52.2338 20.2049C52.2632 20.2049 52.2876 20.1802 52.2876 20.1499C52.2876 20.1194 52.3663 20.0167 52.4628 19.9216C52.5592 19.8263 52.638 19.7135 52.638 19.671C52.638 19.6286 52.6605 19.5937 52.6882 19.5937C52.7158 19.5937 52.7383 19.5595 52.7383 19.5173C52.7383 19.4755 52.7558 19.4409 52.7768 19.4409C52.7981 19.4409 52.857 19.3551 52.9078 19.2499C52.9583 19.1451 53.0199 19.0192 53.0443 18.9706C53.0689 18.922 53.0887 18.8132 53.0887 18.7286C53.0887 18.6262 53.1137 18.5752 53.1639 18.5752C53.2225 18.5752 53.239 18.5076 53.239 18.2726C53.239 18.1061 53.2615 17.9557 53.2892 17.9386C53.3171 17.9209 53.3394 17.6844 53.3394 17.4038C53.3394 17.123 53.3171 16.8865 53.2892 16.869C53.2615 16.8516 53.239 16.7007 53.239 16.5332C53.239 16.3098 53.2191 16.2212 53.1639 16.1998C53.1176 16.1817 53.0887 16.1041 53.0887 15.9978C53.0887 15.9024 53.0662 15.8248 53.0388 15.8248C53.0112 15.8248 52.9887 15.7677 52.9887 15.6974C52.9887 15.6274 52.9661 15.5702 52.9385 15.5702C52.9111 15.5702 52.8886 15.5235 52.8886 15.4667C52.8886 15.4098 52.8585 15.3514 52.8219 15.3371C52.7852 15.323 52.7248 15.232 52.6873 15.1351C52.65 15.0382 52.5899 14.9591 52.5535 14.9591C52.5175 14.9591 52.4877 14.9343 52.4877 14.9044C52.4877 14.8234 52.0313 14.3479 51.9537 14.3479C51.9168 14.3479 51.8867 14.3231 51.8867 14.2932C51.8867 14.2226 51.7593 14.093 51.6902 14.093C51.6604 14.093 51.6364 14.0701 51.6364 14.0423C51.6364 14.0142 51.5913 13.9912 51.5363 13.9912C51.4804 13.9912 51.436 13.9573 51.436 13.9148C51.436 13.8672 51.3888 13.8384 51.311 13.8384C51.2421 13.8384 51.1856 13.8155 51.1856 13.7874C51.1856 13.7596 51.1294 13.7367 51.0603 13.7367C50.9825 13.7367 50.9353 13.7076 50.9353 13.6603C50.9353 13.6068 50.8824 13.5839 50.7598 13.5839C50.6634 13.5839 50.5846 13.561 50.5846 13.5328C50.5846 13.5044 50.4512 13.4818 50.2841 13.4818C50.1171 13.4818 49.9836 13.4592 49.9836 13.4311C49.9836 13.3999 49.7592 13.38 49.4106 13.38C49.0827 13.38 48.8243 13.4017 48.8066 13.4311ZM61.8033 13.4311C61.8033 13.4589 61.6807 13.4818 61.5311 13.4818C61.3811 13.4818 61.2444 13.5047 61.2276 13.5328C61.2104 13.561 61.1443 13.5839 61.0803 13.5839C61.0166 13.5839 60.9361 13.6181 60.9018 13.6603C60.8676 13.7021 60.7861 13.7367 60.7206 13.7367C60.6551 13.7367 60.6013 13.7596 60.6013 13.7874C60.6013 13.8155 60.5677 13.8384 60.5262 13.8384C60.485 13.8384 60.4511 13.8727 60.4511 13.9148C60.4511 13.9604 60.4051 13.9912 60.3369 13.9912C60.2744 13.9912 60.1902 14.0371 60.1506 14.093C60.1109 14.1492 60.0487 14.1951 60.0123 14.1951C59.9318 14.1951 59.3494 14.795 59.3494 14.8778C59.3494 14.9102 59.3043 14.9694 59.249 15.0098C59.1941 15.0501 59.149 15.1357 59.149 15.1993C59.149 15.2631 59.1189 15.3154 59.0823 15.3154C59.0177 15.3154 58.9675 15.4 58.8091 15.7738C58.7676 15.8719 58.7145 15.992 58.6907 16.0406C58.6673 16.0892 58.648 16.2196 58.648 16.3306C58.648 16.4412 58.6255 16.546 58.5982 16.5634C58.5684 16.5821 58.548 16.9036 58.548 17.3558C58.548 17.8292 58.5669 18.1168 58.5982 18.1168C58.6255 18.1168 58.648 18.2302 58.648 18.3683C58.648 18.5067 58.6706 18.6342 58.6982 18.6516C58.7259 18.669 58.7484 18.7396 58.7484 18.809C58.7484 18.8783 58.7821 18.948 58.8235 18.9642C58.8647 18.9804 58.8987 19.0324 58.8987 19.0797C58.8987 19.2133 59.0168 19.4403 59.0865 19.4406C59.1207 19.4409 59.149 19.4984 59.149 19.5684C59.149 19.6384 59.1715 19.6958 59.1992 19.6958C59.2265 19.6958 59.249 19.7203 59.249 19.7502C59.249 19.8208 59.3765 19.9504 59.4459 19.9504C59.4753 19.9504 59.4997 19.9794 59.4997 20.0145C59.4997 20.1108 59.9441 20.5616 60.0391 20.5616C60.0598 20.5616 60.119 20.619 60.1707 20.689C60.2227 20.759 60.3068 20.8161 60.3579 20.8161C60.4093 20.8161 60.4511 20.839 60.4511 20.8672C60.4511 20.8953 60.5076 20.9182 60.5764 20.9182C60.6542 20.9182 60.7017 20.9469 60.7017 20.9946C60.7017 21.042 60.7489 21.071 60.8267 21.071C60.8958 21.071 60.952 21.0939 60.952 21.1217C60.952 21.1498 61.0307 21.1728 61.1272 21.1728C61.2237 21.1728 61.3027 21.1957 61.3027 21.2238C61.3027 21.2528 61.4508 21.2745 61.6471 21.2745C61.892 21.2745 62.0095 21.2965 62.054 21.3509C62.0933 21.3995 62.2039 21.4273 62.3569 21.4273C62.5041 21.4273 62.6267 21.3977 62.6727 21.3509C62.7253 21.2974 62.8539 21.2745 63.1021 21.2745C63.3046 21.2745 63.4561 21.2528 63.4561 21.2238C63.4561 21.1957 63.5351 21.1728 63.6316 21.1728C63.7278 21.1728 63.8068 21.1498 63.8068 21.1217C63.8068 21.0939 63.8525 21.071 63.9087 21.071C63.9646 21.071 64.0231 21.0365 64.0391 20.9946C64.055 20.9524 64.1217 20.9182 64.1878 20.9182C64.2536 20.9182 64.3077 20.8953 64.3077 20.8672C64.3077 20.839 64.3528 20.8161 64.4078 20.8161C64.4634 20.8161 64.5079 20.7822 64.5079 20.7397C64.5079 20.6979 64.5418 20.6633 64.583 20.6633C64.6398 20.6633 64.6581 20.7257 64.6581 20.9182V21.1728H65.4845H66.3109V17.3769V13.5811L65.4971 13.5952L64.6834 13.6092L64.668 13.8497C64.6524 14.0957 64.5292 14.119 64.3928 13.902C64.3708 13.8672 64.3086 13.8384 64.2551 13.8384C64.2013 13.8384 64.1575 13.8155 64.1575 13.7874C64.1575 13.7596 64.1106 13.7367 64.0535 13.7367C63.9967 13.7367 63.9162 13.7021 63.8747 13.6603C63.8335 13.6181 63.7461 13.5839 63.6809 13.5839C63.6157 13.5839 63.5484 13.561 63.5312 13.5328C63.5144 13.5047 63.3777 13.4818 63.2277 13.4818C63.0781 13.4818 62.9555 13.4589 62.9555 13.4311C62.9555 13.3999 62.7301 13.38 62.3794 13.38C62.0287 13.38 61.8033 13.3999 61.8033 13.4311ZM77.4295 13.4311C77.4295 13.4592 77.2961 13.4818 77.129 13.4818C76.9622 13.4818 76.8285 13.5044 76.8285 13.5328C76.8285 13.561 76.7765 13.5839 76.7131 13.5839C76.6494 13.5839 76.5535 13.6175 76.5 13.6584C76.4466 13.6997 76.3633 13.7339 76.3152 13.7348C76.2672 13.7358 76.2275 13.7596 76.2275 13.7874C76.2275 13.8155 76.1818 13.8384 76.1259 13.8384C76.07 13.8384 76.0111 13.8727 75.9952 13.9148C75.9796 13.9567 75.9351 13.9912 75.8966 13.9912C75.8582 13.9912 75.8269 14.0114 75.8269 14.0358C75.8269 14.0606 75.7608 14.1086 75.6803 14.1425C75.5994 14.1764 75.4928 14.2595 75.4429 14.3271C75.3933 14.3943 75.3239 14.4496 75.289 14.4496C75.2545 14.4496 75.2259 14.4756 75.2259 14.5074C75.2259 14.5392 75.1847 14.6021 75.1346 14.6473C75.0847 14.6926 75.0008 14.8041 74.9485 14.8952C74.8966 14.9863 74.8362 15.0608 74.8145 15.0608C74.7929 15.0608 74.7752 15.095 74.7752 15.1372C74.7752 15.1791 74.7541 15.2136 74.7289 15.2136C74.6754 15.2136 74.5248 15.5012 74.5248 15.6036C74.5248 15.6411 74.5032 15.672 74.4771 15.672C74.4506 15.672 74.4143 15.7524 74.3962 15.8508C74.3779 15.9492 74.343 16.0421 74.3187 16.0577C74.2944 16.073 74.2742 16.1872 74.2742 16.3116C74.2742 16.436 74.2517 16.5378 74.2243 16.5378C74.1928 16.5378 74.1741 16.8519 74.1741 17.3782C74.1741 17.9047 74.1928 18.2185 74.2243 18.2185C74.2517 18.2185 74.2742 18.3331 74.2742 18.4734C74.2742 18.6134 74.2968 18.728 74.3244 18.728C74.3521 18.728 74.3746 18.7836 74.3746 18.8517C74.3746 18.9196 74.4082 19.0097 74.4497 19.0519C74.4909 19.0938 74.5248 19.1653 74.5248 19.2102C74.5248 19.2872 74.5561 19.338 74.7127 19.5155C74.7469 19.5546 74.7752 19.6112 74.7752 19.6411C74.7752 19.671 74.7977 19.6958 74.8253 19.6958C74.8527 19.6958 74.8752 19.7196 74.8752 19.7487C74.8752 19.7988 74.9146 19.8562 75.063 20.0249C75.0976 20.064 75.1259 20.1105 75.1259 20.1285C75.1259 20.1777 75.2623 20.307 75.314 20.307C75.3389 20.307 75.3876 20.3608 75.4221 20.4265C75.4567 20.4922 75.5619 20.5768 75.6559 20.6141C75.75 20.6517 75.8272 20.7067 75.8272 20.7367C75.8278 20.7886 76.0511 20.9182 76.1409 20.9182C76.165 20.9182 76.2185 20.9524 76.2596 20.9946C76.3011 21.0365 76.3898 21.071 76.4565 21.071C76.5235 21.071 76.5782 21.0939 76.5782 21.1217C76.5782 21.1498 76.6569 21.1728 76.7534 21.1728C76.8498 21.1728 76.9289 21.1957 76.9289 21.2238C76.9289 21.2525 77.0758 21.2754 77.2669 21.2763C77.4845 21.2773 77.6396 21.3045 77.7021 21.3527C77.8277 21.449 78.2337 21.449 78.359 21.3527C78.4233 21.3032 78.5798 21.2773 78.8193 21.2763C79.027 21.2754 79.1826 21.2528 79.1826 21.2238C79.1826 21.1957 79.2614 21.1728 79.3578 21.1728C79.4543 21.1728 79.533 21.1498 79.533 21.1217C79.533 21.0939 79.5895 21.071 79.6583 21.071C79.7362 21.071 79.7836 21.042 79.7836 20.9946C79.7836 20.9469 79.8308 20.9182 79.9087 20.9182C79.9778 20.9182 80.034 20.8953 80.034 20.8672C80.034 20.839 80.0667 20.8161 80.1067 20.8161C80.147 20.8161 80.2359 20.759 80.305 20.689C80.3738 20.619 80.4439 20.5616 80.461 20.5616C80.5019 20.5616 80.635 20.425 80.635 20.3834C80.635 20.3305 80.7735 20.2049 80.8318 20.2049C80.8613 20.2049 80.8853 20.1805 80.8853 20.1505C80.8853 20.0891 81.0094 19.9504 81.0641 19.9504C81.123 19.9504 81.2327 19.7783 81.2345 19.683C81.2354 19.6341 81.2585 19.5937 81.2862 19.5937C81.3135 19.5937 81.3361 19.5595 81.3361 19.5173C81.3361 19.4755 81.37 19.4409 81.4112 19.4409C81.4527 19.4409 81.4863 19.4064 81.4863 19.3639C81.4863 19.2863 81.5034 19.2441 81.6546 18.9492C81.6997 18.8609 81.7369 18.7405 81.7369 18.6818C81.7369 18.6232 81.7595 18.5752 81.7868 18.5752C81.8148 18.5752 81.837 18.4404 81.837 18.2726C81.837 18.1061 81.8595 17.9557 81.8872 17.9386C81.9151 17.9209 81.9371 17.6844 81.9371 17.4038C81.9371 17.123 81.9151 16.8865 81.8872 16.869C81.8595 16.8516 81.837 16.69 81.837 16.5093C81.837 16.3248 81.8151 16.1814 81.7868 16.1814C81.7595 16.1814 81.7369 16.1258 81.7369 16.0577C81.7369 15.9895 81.703 15.8997 81.6618 15.8575C81.6203 15.8156 81.5867 15.7337 81.5867 15.6757C81.5867 15.6176 81.5641 15.5702 81.5365 15.5702C81.5088 15.5702 81.4863 15.5128 81.4863 15.4428C81.4863 15.3637 81.4581 15.3154 81.4112 15.3154C81.3694 15.3154 81.3361 15.2702 81.3361 15.2136C81.3361 15.1577 81.3135 15.1119 81.2862 15.1119C81.2585 15.1119 81.236 15.0853 81.236 15.0532C81.236 14.9459 80.2494 13.9912 80.1385 13.9912C80.079 13.9912 80.034 13.9585 80.034 13.9148C80.034 13.8672 79.9868 13.8384 79.9087 13.8384C79.8399 13.8384 79.7836 13.8155 79.7836 13.7874C79.7836 13.7596 79.7272 13.7367 79.6583 13.7367C79.5805 13.7367 79.533 13.7076 79.533 13.6603C79.533 13.6068 79.4801 13.5839 79.3578 13.5839C79.2614 13.5839 79.1826 13.561 79.1826 13.5328C79.1826 13.5044 79.0489 13.4818 78.8821 13.4818C78.7151 13.4818 78.5816 13.4592 78.5816 13.4311C78.5816 13.3999 78.3563 13.38 78.0056 13.38C77.6549 13.38 77.4295 13.3999 77.4295 13.4311ZM53.239 14.3219V15.0608H54.1405H55.042V18.1168V21.1728H55.8684H56.6948V18.1168V15.0608H57.5978H58.5005L58.4867 14.335L58.4729 13.6092L55.8561 13.5961L53.239 13.583V14.3219ZM67.0621 17.3782V21.1728H67.8386H68.6148V19.5173V17.8622H70.1925H71.7701V19.5173V21.1728H72.5965H73.4229V17.3769V13.5811L72.6091 13.5952L71.7951 13.6092L71.7818 14.9462L71.7683 16.2832H70.1916H68.6148V14.9334V13.5839H67.8386H67.0621V17.3782ZM85.944 17.3782V21.1728H87.5937C88.6395 21.1728 89.2549 21.1541 89.2745 21.1217C89.2916 21.0939 89.3814 21.071 89.4743 21.071C89.5668 21.071 89.6768 21.0365 89.718 20.9946C89.7595 20.9524 89.84 20.9182 89.8968 20.9182C89.9539 20.9182 90.0008 20.8953 90.0008 20.8672C90.0008 20.839 90.0425 20.8161 90.0939 20.8161C90.145 20.8161 90.2292 20.759 90.2811 20.689C90.3328 20.619 90.3938 20.5616 90.4167 20.5616C90.4765 20.5616 90.6018 20.4262 90.6018 20.3614C90.6018 20.3314 90.6297 20.3067 90.6643 20.3064C90.7352 20.3061 90.8521 20.0784 90.8521 19.9403C90.8521 19.8899 90.8746 19.8486 90.9023 19.8486C90.9296 19.8486 90.9522 19.7364 90.9522 19.5992C90.9522 19.4247 90.9747 19.3413 91.0273 19.3208C91.0853 19.2982 91.1024 19.1998 91.1024 18.8887C91.1024 18.5926 91.0826 18.4688 91.0273 18.4224C90.9762 18.3793 90.9522 18.2635 90.9522 18.0596C90.9522 17.894 90.9299 17.7602 90.9023 17.7602C90.8746 17.7602 90.8521 17.703 90.8521 17.633C90.8521 17.563 90.8347 17.5056 90.8133 17.5056C90.792 17.5056 90.7322 17.4252 90.6802 17.3274C90.6285 17.2293 90.5585 17.149 90.5248 17.149C90.417 17.149 90.3373 17.0127 90.4251 16.9784C90.4705 16.9607 90.5014 16.8855 90.5014 16.7942C90.5014 16.7092 90.5239 16.6398 90.5516 16.6398C90.5828 16.6398 90.6018 16.3257 90.6018 15.7994C90.6018 15.2729 90.5828 14.9591 90.5516 14.9591C90.5239 14.9591 90.5014 14.9016 90.5014 14.8316C90.5014 14.7525 90.4732 14.7042 90.4263 14.7042C90.3842 14.7042 90.3512 14.6587 90.3512 14.6C90.3512 14.4939 89.8983 13.9912 89.8027 13.9912C89.7739 13.9912 89.7502 13.9567 89.7502 13.9148C89.7502 13.8727 89.7066 13.8384 89.6531 13.8384C89.5996 13.8384 89.5419 13.8155 89.5248 13.7874C89.5079 13.7596 89.4163 13.7367 89.3216 13.7367C89.2017 13.7367 89.1491 13.7131 89.1491 13.6603C89.1491 13.594 88.9379 13.5839 87.5466 13.5839H85.944V17.3782ZM11.4441 15.1119C11.4612 15.1397 11.5414 15.1626 11.6223 15.1626C11.7199 15.1626 11.7695 15.1886 11.7695 15.239C11.7695 15.2815 11.814 15.3154 11.869 15.3154C12 15.3154 12.7212 16.0491 12.7212 16.1821C12.7212 16.238 12.7549 16.2832 12.7963 16.2832C12.8432 16.2832 12.8715 16.3312 12.8715 16.4106C12.8715 16.4806 12.894 16.5378 12.9216 16.5378C12.949 16.5378 12.9715 16.6282 12.9715 16.7385C12.9715 16.8489 12.9941 16.9534 13.0217 16.9708C13.0494 16.9882 13.0719 17.1957 13.0719 17.4322C13.0719 17.685 13.0512 17.8622 13.0217 17.8622C12.9941 17.8622 12.9715 17.9539 12.9715 18.0658C12.9715 18.1779 12.949 18.2696 12.9216 18.2696C12.894 18.2696 12.8715 18.3163 12.8715 18.3735C12.8715 18.4707 12.8435 18.5193 12.6836 18.7008C12.6491 18.7396 12.6211 18.7906 12.6211 18.8139C12.6211 18.8374 12.5646 18.9181 12.4958 18.9935C12.427 19.0693 12.3705 19.1549 12.3705 19.1842C12.3705 19.2133 12.3312 19.238 12.2831 19.2389C12.1746 19.2411 12.0201 19.3557 12.0201 19.4339C12.0201 19.466 11.9636 19.492 11.8948 19.492C11.826 19.492 11.7695 19.5149 11.7695 19.543C11.7695 19.5708 11.7133 19.5937 11.6445 19.5937C11.5757 19.5937 11.5192 19.6167 11.5192 19.6448C11.5192 19.6729 11.4176 19.6958 11.2938 19.6958C11.1267 19.6958 11.0684 19.7154 11.0684 19.7722C11.0684 19.8749 10.6297 19.8737 10.4954 19.7704C10.4419 19.7294 10.3235 19.6958 10.2324 19.6958C10.1414 19.6958 10.0669 19.6729 10.0669 19.6448C10.0669 19.6167 10.0104 19.5937 9.94155 19.5937C9.87274 19.5937 9.81624 19.5708 9.81624 19.543C9.81624 19.5149 9.77117 19.492 9.71618 19.492C9.66118 19.492 9.61611 19.469 9.61611 19.4409C9.61611 19.4128 9.52596 19.3502 9.41567 19.3016C9.30539 19.253 9.21524 19.1842 9.21524 19.1488C9.21524 19.1133 9.1942 19.0846 9.16866 19.0846C9.14282 19.0846 9.10856 19.0412 9.09203 18.9887C9.0755 18.9358 8.99497 18.8215 8.91323 18.7344C8.83149 18.6473 8.76448 18.53 8.76448 18.4737C8.76448 18.4169 8.73143 18.3713 8.68936 18.3713C8.63707 18.3713 8.61423 18.3176 8.61423 18.1932C8.61423 18.0951 8.59169 18.015 8.56435 18.015C8.5337 18.015 8.51416 17.7782 8.51416 17.4069C8.51416 17.0564 8.5355 16.7853 8.56435 16.767C8.59169 16.7499 8.61423 16.6566 8.61423 16.5604C8.61423 16.4384 8.63737 16.385 8.68936 16.385C8.73113 16.385 8.76448 16.3397 8.76448 16.2832C8.76448 16.2273 8.78702 16.1814 8.81467 16.1814C8.84231 16.1814 8.86485 16.1573 8.86485 16.1283C8.86485 16.0989 8.92104 16.0134 8.98986 15.9376C9.05898 15.8621 9.11517 15.7814 9.11517 15.7579C9.11517 15.6913 9.23447 15.5871 9.35527 15.5479C9.41597 15.5284 9.46586 15.4911 9.46586 15.4648C9.46586 15.4388 9.49951 15.4174 9.54098 15.4174C9.58215 15.4174 9.61611 15.3945 9.61611 15.3664C9.61611 15.3383 9.66118 15.3154 9.71618 15.3154C9.77177 15.3154 9.81624 15.2815 9.81624 15.239C9.81624 15.1916 9.86372 15.1626 9.94155 15.1626C10.0104 15.1626 10.0669 15.1397 10.0669 15.1119C10.0669 15.0804 10.3244 15.0608 10.74 15.0608C11.1346 15.0608 11.426 15.0819 11.4441 15.1119ZM25.1419 15.1119C25.1419 15.1397 25.2041 15.1632 25.2798 15.1635C25.3604 15.1641 25.4662 15.2167 25.5353 15.2909C25.6002 15.3603 25.696 15.4174 25.7483 15.4174C25.8006 15.4174 25.8433 15.4419 25.8433 15.4718C25.8433 15.5311 25.9665 15.672 26.0185 15.672C26.0594 15.672 26.1937 15.8074 26.1937 15.8486C26.1937 15.8786 26.2457 15.9489 26.3815 16.1032C26.4161 16.142 26.4443 16.1986 26.4443 16.2285C26.4443 16.2588 26.4668 16.2832 26.4942 16.2832C26.5218 16.2832 26.5444 16.3407 26.5444 16.4106C26.5444 16.4898 26.5726 16.5378 26.6195 16.5378C26.6751 16.5378 26.6946 16.5974 26.6946 16.767C26.6946 16.8932 26.7172 16.9962 26.7448 16.9962C26.7737 16.9962 26.7947 17.1575 26.7947 17.3782C26.7947 17.5991 26.7737 17.7602 26.7448 17.7602C26.7172 17.7602 26.6946 17.8491 26.6946 17.9579C26.6946 18.0713 26.6628 18.1822 26.6195 18.2185C26.578 18.2534 26.5444 18.3252 26.5444 18.3778C26.5444 18.4303 26.5245 18.4734 26.5002 18.4734C26.4759 18.4734 26.4425 18.5135 26.4266 18.5623C26.3629 18.7549 25.8484 19.3392 25.7423 19.3392C25.7153 19.3392 25.693 19.3734 25.693 19.4156C25.693 19.458 25.6486 19.492 25.5927 19.492C25.5377 19.492 25.4926 19.5149 25.4926 19.543C25.4926 19.5708 25.4364 19.5937 25.3673 19.5937C25.2985 19.5937 25.2423 19.6167 25.2423 19.6448C25.2423 19.6729 25.1401 19.6958 25.0151 19.6958C24.8597 19.6958 24.7792 19.7196 24.7594 19.7722C24.7398 19.8242 24.6596 19.8486 24.507 19.8486C24.375 19.8486 24.2527 19.8171 24.2083 19.7722C24.1671 19.73 24.0571 19.6958 23.9645 19.6958C23.8717 19.6958 23.7818 19.6729 23.7647 19.6448C23.7476 19.6167 23.6673 19.5937 23.5865 19.5937C23.5054 19.5937 23.4393 19.5708 23.4393 19.543C23.4393 19.5149 23.4053 19.492 23.3641 19.492C23.3227 19.492 23.289 19.4706 23.289 19.4446C23.289 19.4183 23.2391 19.381 23.1784 19.3615C23.0495 19.3196 22.9383 19.2166 22.9383 19.139C22.9383 19.1091 22.9215 19.0846 22.9008 19.0843C22.8226 19.0843 22.5876 18.8398 22.5876 18.7585C22.5876 18.7121 22.554 18.6607 22.5125 18.6445C22.4713 18.6284 22.4374 18.573 22.4374 18.5217C22.4374 18.4704 22.4148 18.4141 22.3875 18.397C22.3599 18.3796 22.3373 18.3096 22.3373 18.2412C22.3373 18.1727 22.3148 18.1168 22.2871 18.1168C22.2562 18.1168 22.2373 17.8546 22.2373 17.4322C22.2373 17.0307 22.258 16.7346 22.2871 16.7162C22.3148 16.6988 22.3373 16.6172 22.3373 16.5347C22.3373 16.4525 22.3599 16.385 22.3875 16.385C22.4148 16.385 22.4374 16.352 22.4374 16.3113C22.4374 16.2707 22.4939 16.1756 22.5627 16.1002C22.6315 16.0247 22.688 15.9202 22.688 15.8682C22.688 15.8163 22.7114 15.7738 22.7403 15.7738C22.7691 15.7738 22.847 15.7224 22.9131 15.6592C23.1141 15.4682 23.182 15.4174 23.2367 15.4174C23.2656 15.4174 23.289 15.397 23.289 15.3719C23.289 15.3469 23.3452 15.312 23.414 15.2946C23.4831 15.2769 23.5393 15.2402 23.5393 15.2127C23.5393 15.1852 23.5958 15.1626 23.6646 15.1626C23.7335 15.1626 23.7897 15.1397 23.7897 15.1119C23.7897 15.0804 24.0484 15.0608 24.4658 15.0608C24.8832 15.0608 25.1419 15.0804 25.1419 15.1119ZM33.556 15.1119C33.556 15.1397 33.635 15.1626 33.7315 15.1626C33.8538 15.1626 33.9067 15.1858 33.9067 15.239C33.9067 15.2815 33.9512 15.3154 34.0068 15.3154C34.0621 15.3154 34.1071 15.3383 34.1071 15.3664C34.1071 15.3945 34.1369 15.4174 34.1738 15.4174C34.2105 15.4174 34.2706 15.4746 34.3073 15.5446C34.3442 15.6149 34.3947 15.672 34.4197 15.672C34.4713 15.672 34.6078 15.8013 34.6078 15.8502C34.6078 15.903 34.7463 16.0286 34.8046 16.0286C34.8341 16.0286 34.8584 16.0858 34.8584 16.1558C34.8584 16.2261 34.8809 16.2832 34.9083 16.2832C34.9359 16.2832 34.9585 16.3297 34.9585 16.3868C34.9585 16.4436 34.9921 16.5032 35.0336 16.5194C35.0823 16.5384 35.1087 16.6175 35.1087 16.744C35.1087 16.8513 35.1313 16.9534 35.1589 16.9708C35.1862 16.9882 35.2088 17.1957 35.2088 17.4322C35.2088 17.685 35.1883 17.8622 35.1589 17.8622C35.1313 17.8622 35.1087 17.9515 35.1087 18.0606C35.1087 18.1895 35.0826 18.269 35.0336 18.2879C34.9921 18.3041 34.9585 18.3527 34.9585 18.3961C34.9585 18.4914 34.8545 18.6886 34.7773 18.7396C34.7463 18.7598 34.6928 18.8459 34.6586 18.9306C34.624 19.0152 34.5759 19.0846 34.5516 19.0846C34.5275 19.0846 34.5077 19.1188 34.5077 19.161C34.5077 19.2029 34.4659 19.2374 34.4148 19.2374C34.3638 19.2374 34.2613 19.2946 34.1868 19.3645C34.1125 19.4348 34.0191 19.492 33.9791 19.492C33.9395 19.492 33.9067 19.5149 33.9067 19.543C33.9067 19.5708 33.8505 19.5937 33.7814 19.5937C33.7126 19.5937 33.6564 19.6167 33.6564 19.6448C33.6564 19.6729 33.5542 19.6958 33.4292 19.6958C33.2738 19.6958 33.1933 19.7196 33.1735 19.7722C33.1539 19.8242 33.0737 19.8486 32.9211 19.8486C32.7891 19.8486 32.6668 19.8171 32.6223 19.7722C32.5812 19.73 32.4811 19.6958 32.4 19.6958C32.3188 19.6958 32.2022 19.6692 32.1406 19.6368C31.9056 19.5134 31.8525 19.492 31.7788 19.492C31.7371 19.492 31.7031 19.4617 31.7031 19.425C31.7031 19.3884 31.6241 19.3266 31.5276 19.2881C31.4315 19.2496 31.3524 19.1986 31.3524 19.1748C31.3524 19.1506 31.2962 19.0693 31.2271 18.9935C31.1583 18.9181 31.1021 18.8374 31.1021 18.8139C31.1021 18.7533 30.9687 18.6262 30.9053 18.6262C30.8758 18.6262 30.8515 18.5688 30.8515 18.4988C30.8515 18.4288 30.8289 18.3713 30.8016 18.3713C30.774 18.3713 30.7514 18.2913 30.7514 18.1932C30.7514 18.0951 30.7289 18.015 30.7012 18.015C30.6706 18.015 30.6513 17.7687 30.6513 17.3782C30.6513 16.9879 30.6706 16.7416 30.7012 16.7416C30.7289 16.7416 30.7514 16.6612 30.7514 16.5634C30.7514 16.4653 30.774 16.385 30.8016 16.385C30.8289 16.385 30.8515 16.3391 30.8515 16.2832C30.8515 16.2267 30.8848 16.1814 30.9266 16.1814C30.9681 16.1814 31.0017 16.1469 31.0017 16.105C31.0017 16.0629 31.0243 16.0286 31.0519 16.0286C31.0796 16.0286 31.1021 16.0048 31.1021 15.9755C31.1021 15.9461 31.1249 15.8948 31.1529 15.8609C31.1811 15.8269 31.243 15.7518 31.2908 15.6937C31.3383 15.636 31.4507 15.5449 31.5402 15.492C31.6298 15.4388 31.7031 15.3774 31.7031 15.3554C31.7031 15.3334 31.7488 15.3154 31.8047 15.3154C31.8606 15.3154 31.9195 15.2812 31.9354 15.239C31.951 15.1971 32.018 15.1626 32.0838 15.1626C32.15 15.1626 32.2037 15.1397 32.2037 15.1119C32.2037 15.0804 32.4625 15.0608 32.8799 15.0608C33.2973 15.0608 33.556 15.0804 33.556 15.1119ZM41.8199 15.1119C41.8199 15.1397 41.8739 15.1626 41.9398 15.1626C42.0059 15.1626 42.0726 15.1971 42.0885 15.239C42.1044 15.2812 42.1528 15.3154 42.1964 15.3154C42.2397 15.3154 42.3316 15.3728 42.4004 15.4428C42.4692 15.5128 42.5447 15.5702 42.5675 15.5702C42.6342 15.5702 42.9218 15.8881 42.9218 15.9617C42.9218 15.9984 42.9416 16.0286 42.9663 16.0286C42.9906 16.0286 43.048 16.1087 43.0937 16.2068C43.1394 16.3049 43.1983 16.385 43.2247 16.385C43.2509 16.385 43.2725 16.4424 43.2725 16.5124C43.2725 16.5824 43.295 16.6398 43.3224 16.6398C43.3503 16.6398 43.3726 16.7743 43.3726 16.9418C43.3726 17.1422 43.3978 17.2694 43.4477 17.3201C43.4888 17.362 43.5228 17.4185 43.5228 17.4457C43.5228 17.4726 43.4888 17.508 43.4477 17.5239C43.3936 17.545 43.3726 17.6312 43.3726 17.832C43.3726 17.9854 43.35 18.125 43.3224 18.1421C43.295 18.1596 43.2725 18.2412 43.2725 18.3237C43.2725 18.4059 43.2493 18.4734 43.2214 18.4734C43.1935 18.4734 43.1316 18.5593 43.0838 18.6644C42.9945 18.8603 42.9035 18.9825 42.8467 18.9825C42.7947 18.9825 42.6715 19.1234 42.6715 19.1827C42.6715 19.2127 42.6459 19.2374 42.6144 19.2374C42.5831 19.2374 42.5053 19.2946 42.4416 19.3645C42.3779 19.4348 42.2907 19.492 42.2481 19.492C42.2054 19.492 42.1705 19.5149 42.1705 19.543C42.1705 19.5708 42.1041 19.5937 42.0233 19.5937C41.9422 19.5937 41.8619 19.6167 41.8451 19.6448C41.8268 19.6747 41.5356 19.6958 41.1407 19.6958C40.7254 19.6958 40.4676 19.6762 40.4676 19.6448C40.4676 19.6167 40.424 19.5937 40.3705 19.5937C40.317 19.5937 40.2593 19.5708 40.2422 19.543C40.2254 19.5149 40.1677 19.492 40.1142 19.492C40.0607 19.492 40.0168 19.4574 40.0168 19.4156C40.0168 19.3734 39.9931 19.3392 39.9642 19.3392C39.9351 19.3392 39.8392 19.2704 39.7512 19.1867C39.6631 19.1026 39.5742 19.0339 39.5538 19.0339C39.533 19.0336 39.5162 18.999 39.5162 18.9572C39.5162 18.915 39.4937 18.8808 39.466 18.8808C39.4384 18.8808 39.4158 18.8462 39.4158 18.8044C39.4158 18.7622 39.3822 18.728 39.3407 18.728C39.2989 18.728 39.2656 18.6828 39.2656 18.6262C39.2656 18.57 39.243 18.5241 39.2157 18.5241C39.188 18.5241 39.1655 18.467 39.1655 18.397C39.1655 18.327 39.143 18.2696 39.1153 18.2696C39.088 18.2696 39.0654 18.2024 39.0654 18.1205C39.0654 18.0382 39.0315 17.9368 38.9903 17.8949C38.9359 17.8399 38.9152 17.7055 38.9152 17.4136C38.9152 17.116 38.935 16.9919 38.9903 16.9454C39.0315 16.9106 39.0654 16.8046 39.0654 16.7098C39.0654 16.6154 39.088 16.5378 39.1153 16.5378C39.143 16.5378 39.1655 16.4806 39.1655 16.4106C39.1655 16.3407 39.188 16.2832 39.2157 16.2832C39.243 16.2832 39.2656 16.2594 39.2656 16.23C39.2656 16.1802 39.3049 16.1225 39.4534 15.9541C39.4879 15.915 39.5162 15.8584 39.5162 15.8285C39.5162 15.7985 39.5396 15.7738 39.5685 15.7738C39.6364 15.7738 39.8666 15.5397 39.8666 15.4706C39.8666 15.4413 39.9083 15.4174 39.9594 15.4174C40.0105 15.4174 40.1133 15.36 40.1875 15.29C40.2681 15.2139 40.3822 15.1626 40.4703 15.1626C40.5514 15.1626 40.6178 15.1397 40.6178 15.1119C40.6178 15.0807 40.8516 15.0608 41.2188 15.0608C41.5864 15.0608 41.8199 15.0807 41.8199 15.1119ZM50.0086 15.1119C50.0257 15.1397 50.1059 15.1626 50.1871 15.1626C50.2679 15.1626 50.3343 15.1858 50.3343 15.2136C50.3343 15.2417 50.4245 15.3047 50.5345 15.353C50.6447 15.4016 50.7349 15.4621 50.7349 15.4871C50.7349 15.5391 50.9909 15.7738 51.048 15.7738C51.0684 15.7738 51.0856 15.7985 51.0856 15.8285C51.0856 15.8991 51.213 16.0286 51.2821 16.0286C51.3119 16.0286 51.3359 16.0858 51.3359 16.1558C51.3359 16.2261 51.3584 16.2832 51.3861 16.2832C51.4134 16.2832 51.436 16.3278 51.436 16.3819C51.436 16.4363 51.4585 16.495 51.4861 16.5124C51.5138 16.5298 51.5363 16.612 51.5363 16.6951C51.5363 16.7829 51.5679 16.8589 51.6115 16.8761C51.7175 16.9173 51.716 17.7925 51.6097 17.9356C51.5694 17.99 51.5363 18.0761 51.5363 18.1272C51.5363 18.1782 51.5153 18.2598 51.4895 18.3084C51.4636 18.357 51.4131 18.4713 51.3771 18.5623C51.341 18.6534 51.2887 18.728 51.2608 18.728C51.2328 18.728 51.1778 18.8019 51.1388 18.8921C51.0513 19.0926 50.795 19.3392 50.6736 19.3392C50.6246 19.3392 50.5846 19.3734 50.5846 19.4156C50.5846 19.458 50.5402 19.492 50.4846 19.492C50.4293 19.492 50.3842 19.5149 50.3842 19.543C50.3842 19.5708 50.328 19.5937 50.2592 19.5937C50.1904 19.5937 50.1339 19.6167 50.1339 19.6448C50.1339 19.6762 49.8751 19.6958 49.4577 19.6958C49.0403 19.6958 48.7816 19.6762 48.7816 19.6448C48.7816 19.6167 48.7026 19.5937 48.6064 19.5937C48.51 19.5937 48.4309 19.5708 48.4309 19.543C48.4309 19.5149 48.3997 19.492 48.3612 19.492C48.3227 19.492 48.2786 19.4574 48.2626 19.4156C48.2467 19.3734 48.1992 19.3392 48.1572 19.3392C48.1151 19.3392 48.0805 19.3163 48.0805 19.2881C48.0805 19.2603 48.0466 19.2374 48.0054 19.2374C47.964 19.2374 47.9303 19.2127 47.9303 19.1827C47.9303 19.1234 47.8068 18.9825 47.7548 18.9825C47.6851 18.9825 47.5796 18.8316 47.5796 18.7316C47.5796 18.6736 47.5595 18.6262 47.5348 18.6262C47.5105 18.6262 47.4762 18.5688 47.4588 18.4988C47.4417 18.4288 47.4053 18.3713 47.3783 18.3713C47.3512 18.3713 47.3293 18.3142 47.3293 18.2442C47.3293 18.1742 47.3067 18.1168 47.2791 18.1168C47.2481 18.1168 47.2289 17.8537 47.2289 17.4292C47.2289 17.0047 47.2481 16.7416 47.2791 16.7416C47.3067 16.7416 47.3293 16.664 47.3293 16.5686C47.3293 16.4623 47.3578 16.3847 47.4044 16.3666C47.4456 16.3504 47.4795 16.3022 47.4795 16.2594C47.4795 16.2166 47.5021 16.1814 47.5294 16.1814C47.5571 16.1814 47.5796 16.1469 47.5796 16.105C47.5796 16.0629 47.6021 16.0286 47.6298 16.0286C47.6571 16.0286 47.6797 15.9941 47.6797 15.9522C47.6797 15.9101 47.7007 15.8758 47.7265 15.8758C47.7521 15.8758 47.786 15.8349 47.8017 15.7848C47.817 15.735 47.9032 15.6506 47.9928 15.5974C48.0823 15.5446 48.192 15.4593 48.2365 15.4083C48.281 15.3572 48.3552 15.3154 48.4009 15.3154C48.4469 15.3154 48.4973 15.2812 48.513 15.239C48.5289 15.1971 48.5959 15.1626 48.6617 15.1626C48.7278 15.1626 48.7816 15.1397 48.7816 15.1119C48.7816 15.0807 49.0142 15.0608 49.3796 15.0608C49.7243 15.0608 49.9908 15.0825 50.0086 15.1119ZM63.1306 15.1119C63.1478 15.1397 63.228 15.1626 63.3089 15.1626C63.4065 15.1626 63.4561 15.1886 63.4561 15.239C63.4561 15.2815 63.5006 15.3154 63.5556 15.3154C63.6124 15.3154 63.8158 15.4792 64.0313 15.6983C64.247 15.9174 64.4078 16.1243 64.4078 16.1821C64.4078 16.238 64.4415 16.2832 64.4829 16.2832C64.5298 16.2832 64.558 16.3312 64.558 16.4106C64.558 16.4806 64.5806 16.5378 64.6082 16.5378C64.6356 16.5378 64.6581 16.6282 64.6581 16.7385C64.6581 16.8489 64.6806 16.9534 64.7083 16.9708C64.7359 16.9882 64.7585 17.1957 64.7585 17.4322C64.7585 17.685 64.7377 17.8622 64.7083 17.8622C64.6806 17.8622 64.6581 17.9539 64.6581 18.0658C64.6581 18.1779 64.6356 18.2696 64.6082 18.2696C64.5806 18.2696 64.558 18.3163 64.558 18.3735C64.558 18.4707 64.5301 18.5193 64.3702 18.7008C64.3357 18.7396 64.3077 18.7906 64.3077 18.8139C64.3077 18.8374 64.2512 18.9181 64.1824 18.9935C64.1136 19.0693 64.0571 19.1549 64.0571 19.1842C64.0571 19.2133 64.0177 19.238 63.9697 19.2389C63.8612 19.2411 63.7067 19.3557 63.7067 19.4339C63.7067 19.466 63.6502 19.492 63.5814 19.492C63.5126 19.492 63.4561 19.5149 63.4561 19.543C63.4561 19.5708 63.3999 19.5937 63.3311 19.5937C63.2623 19.5937 63.2058 19.6167 63.2058 19.6448C63.2058 19.6729 63.1042 19.6958 62.9804 19.6958C62.8133 19.6958 62.755 19.7154 62.755 19.7722C62.755 19.8749 62.3163 19.8737 62.182 19.7704C62.1285 19.7294 62.0101 19.6958 61.919 19.6958C61.828 19.6958 61.7534 19.6729 61.7534 19.6448C61.7534 19.6167 61.697 19.5937 61.6281 19.5937C61.5593 19.5937 61.5028 19.5708 61.5028 19.543C61.5028 19.5149 61.4578 19.492 61.4028 19.492C61.3478 19.492 61.3027 19.469 61.3027 19.4409C61.3027 19.4128 61.2125 19.3502 61.1023 19.3016C60.992 19.253 60.9018 19.1842 60.9018 19.1488C60.9018 19.1133 60.8808 19.0846 60.8552 19.0846C60.8294 19.0846 60.7951 19.0412 60.7786 18.9887C60.7621 18.9358 60.6815 18.8215 60.5998 18.7344C60.5181 18.6473 60.4511 18.53 60.4511 18.4737C60.4511 18.4169 60.418 18.3713 60.3759 18.3713C60.3237 18.3713 60.3008 18.3176 60.3008 18.1932C60.3008 18.0951 60.2783 18.015 60.2509 18.015C60.2203 18.015 60.2007 17.7782 60.2007 17.4069C60.2007 17.0564 60.2221 16.7853 60.2509 16.767C60.2783 16.7499 60.3008 16.6566 60.3008 16.5604C60.3008 16.4384 60.3239 16.385 60.3759 16.385C60.4177 16.385 60.4511 16.3397 60.4511 16.2832C60.4511 16.2273 60.4736 16.1814 60.5012 16.1814C60.5289 16.1814 60.5514 16.1573 60.5514 16.1283C60.5514 16.0989 60.6076 16.0134 60.6764 15.9376C60.7456 15.8621 60.8018 15.7814 60.8018 15.7579C60.8018 15.6913 60.9211 15.5871 61.0419 15.5479C61.1026 15.5284 61.1524 15.4911 61.1524 15.4648C61.1524 15.4388 61.1861 15.4174 61.2276 15.4174C61.2687 15.4174 61.3027 15.3945 61.3027 15.3664C61.3027 15.3383 61.3478 15.3154 61.4028 15.3154C61.4584 15.3154 61.5028 15.2815 61.5028 15.239C61.5028 15.1916 61.5503 15.1626 61.6281 15.1626C61.697 15.1626 61.7534 15.1397 61.7534 15.1119C61.7534 15.0804 62.011 15.0608 62.4266 15.0608C62.8211 15.0608 63.1126 15.0819 63.1306 15.1119ZM78.6315 15.1119C78.6315 15.1397 78.7106 15.1626 78.807 15.1626C78.9182 15.1626 78.9822 15.187 78.9822 15.2295C78.9822 15.2665 79.0609 15.3279 79.1574 15.3664C79.2539 15.4049 79.3329 15.4566 79.3329 15.4813C79.3329 15.5333 79.4603 15.672 79.5081 15.672C79.5499 15.672 79.6833 15.8077 79.6833 15.8502C79.6833 15.903 79.8218 16.0286 79.8801 16.0286C79.9096 16.0286 79.9339 16.0858 79.9339 16.1558C79.9339 16.2261 79.9565 16.2832 79.9838 16.2832C80.0114 16.2832 80.034 16.3297 80.034 16.3868C80.034 16.4436 80.0676 16.5032 80.1091 16.5194C80.1554 16.5375 80.1842 16.6151 80.1842 16.7214C80.1842 16.8168 80.2068 16.8944 80.2344 16.8944C80.2642 16.8944 80.2843 17.0888 80.2843 17.3751C80.2843 17.641 80.2621 17.8702 80.2344 17.8876C80.2068 17.905 80.1842 17.9955 80.1842 18.089C80.1842 18.1849 80.1548 18.2702 80.1163 18.2852C80.0788 18.2998 80.0352 18.3775 80.0195 18.4578C80.0036 18.5379 79.9348 18.6653 79.866 18.7405C79.7975 18.816 79.7266 18.9242 79.7088 18.981C79.6911 19.0379 79.6556 19.0846 79.6298 19.0846C79.6042 19.0846 79.5832 19.1133 79.5832 19.1488C79.5832 19.1842 79.4931 19.253 79.3828 19.3016C79.2728 19.3502 79.1826 19.4128 79.1826 19.4409C79.1826 19.469 79.1376 19.492 79.0823 19.492C79.0273 19.492 78.9822 19.5149 78.9822 19.543C78.9822 19.5708 78.926 19.5937 78.8569 19.5937C78.7881 19.5937 78.7319 19.6167 78.7319 19.6448C78.7319 19.6762 78.4732 19.6958 78.0558 19.6958C77.6384 19.6958 77.3796 19.6762 77.3796 19.6448C77.3796 19.6167 77.3006 19.5937 77.2041 19.5937C77.1077 19.5937 77.0289 19.5708 77.0289 19.543C77.0289 19.5149 76.9977 19.492 76.9592 19.492C76.9208 19.492 76.8763 19.4574 76.8607 19.4156C76.8447 19.3734 76.7972 19.3392 76.7552 19.3392C76.7128 19.3392 76.6782 19.3163 76.6782 19.2881C76.6782 19.2603 76.6446 19.2374 76.6031 19.2374C76.562 19.2374 76.528 19.2133 76.528 19.1839C76.528 19.1149 76.2978 18.8808 76.2299 18.8808C76.201 18.8808 76.1776 18.8236 76.1776 18.7533C76.1776 18.6834 76.1551 18.6262 76.1274 18.6262C76.0998 18.6262 76.0772 18.5795 76.0772 18.5226C76.0772 18.4658 76.0436 18.4059 76.0021 18.39C75.9609 18.3738 75.927 18.3056 75.927 18.2387C75.927 18.1715 75.9044 18.1168 75.8771 18.1168C75.8462 18.1168 75.8269 17.8537 75.8269 17.4292C75.8269 17.0047 75.8462 16.7416 75.8771 16.7416C75.9044 16.7416 75.927 16.6612 75.927 16.5634C75.927 16.4388 75.9498 16.385 76.0021 16.385C76.0439 16.385 76.0772 16.3397 76.0772 16.2832C76.0772 16.2273 76.0998 16.1814 76.1274 16.1814C76.1551 16.1814 76.1776 16.1573 76.1776 16.1283C76.1776 16.0989 76.2338 16.0134 76.3026 15.9376C76.3717 15.8621 76.4279 15.775 76.4279 15.7441C76.4279 15.7133 76.5067 15.6448 76.6031 15.5919C76.6996 15.5394 76.7786 15.4783 76.7786 15.4566C76.7786 15.4352 76.8123 15.4174 76.8537 15.4174C76.8949 15.4174 76.9289 15.3945 76.9289 15.3664C76.9289 15.3383 76.9739 15.3154 77.0289 15.3154C77.0845 15.3154 77.129 15.2815 77.129 15.239C77.129 15.1916 77.1765 15.1626 77.2543 15.1626C77.3231 15.1626 77.3796 15.1397 77.3796 15.1119C77.3796 15.0804 77.6215 15.0608 78.0056 15.0608C78.3896 15.0608 78.6315 15.0804 78.6315 15.1119ZM88.4481 15.1119C88.4481 15.1397 88.5046 15.1626 88.5734 15.1626C88.6422 15.1626 88.6984 15.1873 88.6984 15.2173C88.6984 15.2879 88.8258 15.4174 88.8952 15.4174C88.9286 15.4174 88.949 15.5617 88.949 15.7994C88.949 16.0369 88.9286 16.1814 88.8952 16.1814C88.8258 16.1814 88.6984 16.311 88.6984 16.3813C88.6984 16.4171 88.4913 16.436 88.0974 16.436H87.4964V15.7484V15.0608H87.9724C88.2561 15.0608 88.4481 15.0813 88.4481 15.1119ZM88.473 18.0658C88.4901 18.0939 88.5872 18.1174 88.6891 18.1183C88.8799 18.1201 89.0491 18.2118 89.0491 18.3133C89.0491 18.3454 89.0827 18.3713 89.1242 18.3713C89.166 18.3713 89.1993 18.4166 89.1993 18.4734C89.1993 18.5293 89.2219 18.5752 89.2495 18.5752C89.2778 18.5752 89.2994 18.7194 89.2994 18.9061C89.2994 19.0929 89.2778 19.2374 89.2495 19.2374C89.2219 19.2374 89.1993 19.2634 89.1993 19.2952C89.1993 19.389 88.9331 19.5937 88.8111 19.5937C88.7492 19.5937 88.6984 19.6167 88.6984 19.6448C88.6984 19.6759 88.4649 19.6958 88.0974 19.6958H87.4964V18.8554V18.015H87.9694C88.2305 18.015 88.4559 18.0376 88.473 18.0658Z" fill="#1C345C"/>
</svg>
