<svg width="189" height="63" viewBox="0 0 189 63" fill="none" xmlns="http://www.w3.org/2000/svg">
<path d="M101.75 13.1022C102.252 13.3505 103 13.8613 103.311 14.0857C107.133 16.5602 115.004 21.5633 115.965 22.1844C117.439 23.1372 117.679 23.4281 118.423 24.5662C118.913 25.3158 119.048 29.8583 119.164 32.0259L93.4585 15.6086L98.0848 12.9378C99.7528 11.9747 101.122 12.7917 101.75 13.1022Z" fill="url(#paint0_linear_144_2)"/>
<path d="M111.898 49.8608C111.396 49.6123 110.648 49.1016 110.337 48.8772C106.515 46.4029 98.6437 41.3996 97.6828 40.7786C96.2089 39.8257 95.9691 39.5348 95.2249 38.3967C94.7347 37.6472 94.5995 33.1046 94.4833 30.937L120.189 47.3543L115.563 50.0252C113.895 50.9883 112.526 50.1712 111.898 49.8608Z" fill="url(#paint1_linear_144_2)"/>
<g filter="url(#filter0_i_144_2)">
<path d="M111.323 23.3644C109.281 18.5085 105.228 15.3795 103.32 14.0891C107.054 16.4746 114.883 21.4799 116.323 22.417C118.125 23.5883 118.529 24.5575 118.704 25.4652C118.879 26.3729 119.216 32.735 119.308 33.7681C119.4 34.8012 119.191 35.5815 118.58 35.9341L112.964 39.1763C112.497 34.1017 112.331 25.7612 111.323 23.3644Z" fill="url(#paint2_radial_144_2)"/>
</g>
<path d="M111.447 23.3121C110.074 20.0455 107.799 17.5569 105.868 15.8782C109.834 18.4129 115.095 21.7794 116.25 22.5304C117.141 23.1095 117.677 23.6333 118.013 24.1171C118.347 24.5992 118.486 25.0491 118.571 25.4909C118.613 25.7086 118.667 26.2674 118.724 27.0108C118.782 27.7501 118.843 28.662 118.902 29.5784C118.943 30.2094 118.982 30.8431 119.018 31.4239C119.086 32.5276 119.143 33.4403 119.173 33.7802C119.264 34.8021 119.051 35.5064 118.512 35.8171L113.08 38.9536C112.951 37.5086 112.845 35.8201 112.736 34.0855C112.656 32.8076 112.575 31.5048 112.481 30.2562C112.368 28.7458 112.238 27.3167 112.073 26.1142C111.908 24.9156 111.707 23.9292 111.447 23.3121Z" stroke="url(#paint3_linear_144_2)" stroke-width="0.429185"/>
<g filter="url(#filter1_i_144_2)">
<path d="M102.325 39.5987C104.367 44.4546 108.419 47.5837 110.327 48.874C106.593 46.4887 98.7651 41.4833 97.3239 40.5461C95.5226 39.3748 95.1184 38.4058 94.9434 37.4981C94.7685 36.5904 94.4319 30.2283 94.3397 29.1952C94.2474 28.1621 94.4567 27.3818 95.0675 27.0291L100.683 23.7869C101.15 28.8615 101.317 37.202 102.325 39.5987Z" fill="url(#paint4_radial_144_2)"/>
</g>
<path d="M102.2 39.651C103.574 42.9175 105.849 45.4062 107.779 47.085C103.814 44.5504 98.5528 41.1838 97.3978 40.4327C96.5071 39.8535 95.9704 39.3298 95.6348 38.846C95.3006 38.3639 95.1614 37.914 95.0762 37.4722C95.0343 37.2546 94.9808 36.6957 94.9229 35.9524C94.8656 35.2131 94.8042 34.3011 94.7455 33.3848C94.705 32.7538 94.6658 32.1201 94.6295 31.5393C94.5611 30.4355 94.5046 29.5229 94.4743 29.183C94.3832 28.1611 94.5971 27.4567 95.1352 27.146L100.568 24.0095C100.696 25.4546 100.802 27.1432 100.911 28.8776C100.991 30.1555 101.073 31.4584 101.166 32.707C101.279 34.2173 101.41 35.6466 101.575 36.849C101.74 38.0476 101.941 39.034 102.2 39.651Z" stroke="url(#paint5_linear_144_2)" stroke-width="0.429185"/>
<g filter="url(#filter2_ii_144_2)">
<path d="M128.68 26.0219C129.026 25.4912 129.459 25.0759 129.978 24.7759C130.497 24.4644 131.074 24.3087 131.708 24.3087V27.4409H130.895C130.157 27.4409 129.603 27.6024 129.234 27.9254C128.865 28.2369 128.68 28.7906 128.68 29.5866V34.0686H125.721V24.4125H128.68V26.0219ZM138.505 31.5594V34.0686H136.999C135.926 34.0686 135.09 33.809 134.49 33.2899C133.89 32.7592 133.59 31.8997 133.59 30.7114V26.8698H132.413V24.4125H133.59V22.0591H136.549V24.4125H138.487V26.8698H136.549V30.7461C136.549 31.0344 136.618 31.2421 136.757 31.369C136.895 31.4959 137.126 31.5594 137.449 31.5594H138.505ZM149.255 29.0848C149.255 29.3617 149.238 29.6501 149.203 29.95H142.506C142.552 30.5499 142.743 31.0114 143.077 31.3344C143.423 31.6459 143.844 31.8016 144.341 31.8016C145.079 31.8016 145.592 31.4902 145.881 30.8672H149.03C148.869 31.5017 148.575 32.0727 148.148 32.5804C147.732 33.088 147.207 33.486 146.573 33.7744C145.938 34.0628 145.229 34.207 144.444 34.207C143.498 34.207 142.656 34.0051 141.918 33.6013C141.179 33.1975 140.603 32.6207 140.187 31.8709C139.772 31.121 139.564 30.2442 139.564 29.2405C139.564 28.2369 139.766 27.3601 140.17 26.6102C140.585 25.8603 141.162 25.2835 141.901 24.8798C142.639 24.476 143.487 24.2741 144.444 24.2741C145.379 24.2741 146.209 24.4702 146.936 24.8624C147.663 25.2547 148.228 25.8142 148.632 26.541C149.047 27.2678 149.255 28.1157 149.255 29.0848ZM146.227 28.3061C146.227 27.7985 146.054 27.3947 145.708 27.0948C145.362 26.7948 144.929 26.6448 144.41 26.6448C143.914 26.6448 143.493 26.789 143.147 27.0775C142.812 27.3658 142.604 27.7754 142.524 28.3061H146.227ZM150.228 29.2405C150.228 28.2369 150.43 27.3601 150.834 26.6102C151.249 25.8603 151.82 25.2835 152.547 24.8798C153.285 24.476 154.127 24.2741 155.073 24.2741C156.285 24.2741 157.294 24.5913 158.102 25.2258C158.921 25.8603 159.457 26.7544 159.711 27.9081H156.561C156.296 27.1697 155.783 26.8006 155.021 26.8006C154.479 26.8006 154.046 27.014 153.724 27.4409C153.4 27.8562 153.239 28.456 153.239 29.2405C153.239 30.025 153.4 30.6307 153.724 31.0575C154.046 31.4729 154.479 31.6805 155.021 31.6805C155.783 31.6805 156.296 31.3113 156.561 30.573H159.711C159.457 31.7036 158.921 32.5919 158.102 33.2379C157.282 33.884 156.273 34.207 155.073 34.207C154.127 34.207 153.285 34.0051 152.547 33.6013C151.82 33.1975 151.249 32.6207 150.834 31.8709C150.43 31.121 150.228 30.2442 150.228 29.2405ZM165.689 34.207C164.743 34.207 163.889 34.0051 163.128 33.6013C162.378 33.1975 161.784 32.6207 161.346 31.8709C160.919 31.121 160.705 30.2442 160.705 29.2405C160.705 28.2484 160.924 27.3774 161.363 26.6275C161.801 25.8661 162.401 25.2835 163.163 24.8798C163.924 24.476 164.778 24.2741 165.724 24.2741C166.67 24.2741 167.523 24.476 168.285 24.8798C169.046 25.2835 169.646 25.8661 170.085 26.6275C170.523 27.3774 170.742 28.2484 170.742 29.2405C170.742 30.2327 170.517 31.1095 170.067 31.8709C169.629 32.6207 169.023 33.1975 168.25 33.6013C167.489 34.0051 166.635 34.207 165.689 34.207ZM165.689 31.6459C166.254 31.6459 166.733 31.4382 167.125 31.0229C167.529 30.6076 167.731 30.0135 167.731 29.2405C167.731 28.4676 167.535 27.8735 167.143 27.4582C166.762 27.0428 166.289 26.8352 165.724 26.8352C165.147 26.8352 164.668 27.0428 164.287 27.4582C163.907 27.8619 163.716 28.456 163.716 29.2405C163.716 30.0135 163.901 30.6076 164.27 31.0229C164.651 31.4382 165.124 31.6459 165.689 31.6459Z" fill="#331274"/>
</g>
<path d="M128.185 42.1517V43.1624H127.859V42.4507H125.826V39.7479H126.167V42.1479H127.518V39.7479H127.855V42.1517H128.185ZM129.544 39.7479H129.862V41.2318C129.862 41.2948 129.861 41.3643 129.859 41.44C129.859 41.5133 129.857 41.5863 129.855 41.6596C129.852 41.7328 129.849 41.7983 129.844 41.8564C129.841 41.9118 129.838 41.9548 129.836 41.9851H129.851L131.339 39.7479H131.717V42.4507H131.399V40.982C131.399 40.9138 131.401 40.8406 131.403 40.7624C131.406 40.6816 131.408 40.6048 131.411 40.5315C131.416 40.4558 131.42 40.389 131.422 40.3309C131.424 40.2728 131.427 40.23 131.43 40.2022H131.414L129.923 42.4507H129.544V39.7479ZM134.676 39.7101V40.0432C134.969 40.0483 135.2 40.0962 135.369 40.187C135.538 40.2779 135.658 40.399 135.728 40.5504C135.799 40.6994 135.834 40.866 135.834 41.0501C135.834 41.1713 135.815 41.2924 135.777 41.4135C135.742 41.5322 135.68 41.6406 135.592 41.7391C135.504 41.835 135.385 41.9132 135.236 41.9738C135.087 42.0343 134.901 42.067 134.676 42.0722V42.4886H134.339V42.0722C134.109 42.067 133.919 42.0343 133.767 41.9738C133.618 41.9108 133.501 41.8299 133.415 41.7315C133.33 41.6306 133.269 41.5209 133.234 41.4022C133.198 41.2835 133.181 41.1661 133.181 41.0501C133.181 40.9163 133.2 40.7903 133.237 40.6716C133.278 40.5504 133.342 40.4445 133.43 40.3536C133.521 40.2603 133.641 40.1857 133.79 40.1303C133.939 40.0748 134.122 40.0456 134.339 40.0432V39.7101H134.676ZM134.339 40.3309C134.137 40.336 133.976 40.3687 133.854 40.4293C133.736 40.4899 133.651 40.5732 133.601 40.6791C133.55 40.7827 133.525 40.9049 133.525 41.0463C133.525 41.1953 133.553 41.3251 133.608 41.4362C133.667 41.5447 133.755 41.6293 133.873 41.6899C133.995 41.7504 134.15 41.7845 134.339 41.7921V40.3309ZM134.676 41.7921C134.87 41.7845 135.027 41.7491 135.145 41.6861C135.266 41.6231 135.353 41.5371 135.406 41.4287C135.462 41.3175 135.49 41.1902 135.49 41.0463C135.49 40.9025 135.465 40.7789 135.414 40.6754C135.363 40.5694 135.279 40.4874 135.16 40.4293C135.042 40.3687 134.88 40.336 134.676 40.3309V41.7921ZM138.021 39.7479C138.375 39.7479 138.632 39.8174 138.793 39.9561C138.955 40.0948 139.036 40.2906 139.036 40.5429C139.036 40.654 139.017 40.7611 138.979 40.8646C138.943 40.9655 138.884 41.0563 138.801 41.1372C138.718 41.218 138.606 41.2824 138.468 41.3302C138.329 41.3757 138.159 41.3984 137.957 41.3984H137.646V42.4507H137.306V39.7479H138.021ZM137.991 40.0394H137.646V41.1069H137.919C138.091 41.1069 138.233 41.0893 138.347 41.0539C138.46 41.016 138.545 40.9568 138.6 40.876C138.656 40.7951 138.684 40.6892 138.684 40.558C138.684 40.3839 138.628 40.2538 138.517 40.1681C138.406 40.0824 138.231 40.0394 137.991 40.0394ZM142.865 41.0955C142.865 41.3051 142.838 41.4954 142.785 41.6671C142.732 41.8361 142.653 41.9827 142.547 42.1062C142.443 42.2298 142.313 42.3244 142.157 42.3902C142.003 42.4559 141.824 42.4886 141.619 42.4886C141.407 42.4886 141.223 42.4559 141.066 42.3902C140.91 42.322 140.78 42.2274 140.677 42.1062C140.573 41.9827 140.496 41.835 140.446 41.6634C140.395 41.4917 140.37 41.3013 140.37 41.0918C140.37 40.8141 140.415 40.5718 140.506 40.365C140.597 40.1581 140.734 39.9964 140.919 39.8804C141.105 39.7644 141.34 39.7063 141.623 39.7063C141.893 39.7063 142.12 39.7644 142.304 39.8804C142.488 39.994 142.627 40.1554 142.721 40.365C142.816 40.5718 142.865 40.8154 142.865 41.0955ZM140.73 41.0955C140.73 41.3227 140.761 41.5182 140.824 41.6823C140.887 41.8464 140.984 41.9724 141.116 42.0608C141.249 42.1492 141.417 42.1933 141.619 42.1933C141.824 42.1933 141.99 42.1492 142.119 42.0608C142.25 41.9724 142.347 41.8464 142.41 41.6823C142.473 41.5182 142.505 41.3227 142.505 41.0955C142.505 40.7549 142.434 40.4885 142.293 40.2968C142.152 40.1024 141.928 40.0053 141.623 40.0053C141.419 40.0053 141.249 40.0494 141.116 40.1378C140.984 40.2235 140.887 40.3485 140.824 40.5126C140.761 40.674 140.73 40.8684 140.73 41.0955ZM145.144 39.7479C145.369 39.7479 145.557 39.7693 145.708 39.8123C145.862 39.8553 145.977 39.9259 146.053 40.0243C146.131 40.1227 146.17 40.2538 146.17 40.418C146.17 40.5239 146.15 40.6186 146.109 40.7019C146.072 40.7827 146.013 40.8508 145.935 40.9063C145.86 40.9593 145.766 40.9958 145.655 41.016V41.035C145.769 41.0526 145.871 41.0855 145.962 41.1334C146.055 41.1813 146.128 41.2494 146.181 41.3378C146.234 41.4262 146.261 41.5409 146.261 41.6823C146.261 41.8464 146.223 41.9865 146.147 42.1025C146.072 42.216 145.963 42.3031 145.822 42.3637C145.683 42.4218 145.516 42.4507 145.322 42.4507H144.372V39.7479H145.144ZM145.212 40.8987C145.445 40.8987 145.604 40.8622 145.689 40.7889C145.775 40.7132 145.818 40.6021 145.818 40.4558C145.818 40.3068 145.765 40.2008 145.659 40.1378C145.555 40.0721 145.389 40.0394 145.159 40.0394H144.713V40.8987H145.212ZM144.713 41.1826V42.163H145.258C145.498 42.163 145.664 42.1163 145.757 42.023C145.851 41.9297 145.897 41.8072 145.897 41.6558C145.897 41.5598 145.876 41.4765 145.833 41.4059C145.793 41.3354 145.723 41.281 145.625 41.2432C145.529 41.2029 145.398 41.1826 145.231 41.1826H144.713ZM149.438 42.4507L149.113 41.6141H148.042L147.72 42.4507H147.375L148.432 39.7366H148.738L149.79 42.4507H149.438ZM148.708 40.4937C148.7 40.4734 148.688 40.4369 148.67 40.3839C148.652 40.3309 148.635 40.2765 148.617 40.2211C148.602 40.163 148.589 40.1189 148.579 40.0886C148.566 40.1392 148.553 40.1908 148.538 40.2438C148.525 40.2944 148.511 40.3409 148.496 40.3839C148.483 40.4269 148.472 40.4634 148.462 40.4937L148.155 41.3113H149.011L148.708 40.4937ZM151.882 41.3302L151.182 42.4507H150.785L151.542 41.2697C151.446 41.237 151.355 41.1915 151.269 41.1334C151.186 41.0753 151.118 40.9958 151.065 40.8949C151.012 40.7941 150.985 40.664 150.985 40.505C150.985 40.2603 151.07 40.0735 151.239 39.9448C151.408 39.8136 151.66 39.7479 151.996 39.7479H152.753V42.4507H152.412V41.3302H151.882ZM152.004 40.0394C151.86 40.0394 151.739 40.0559 151.64 40.0886C151.542 40.1213 151.466 40.1733 151.413 40.2438C151.362 40.3144 151.337 40.4066 151.337 40.5202C151.337 40.6867 151.393 40.8154 151.504 40.9063C151.615 40.9971 151.786 41.0425 152.019 41.0425H152.412V40.0394H152.004ZM157.028 39.7479C157.381 39.7479 157.638 39.8174 157.8 39.9561C157.962 40.0948 158.042 40.2906 158.042 40.5429C158.042 40.654 158.023 40.7611 157.986 40.8646C157.95 40.9655 157.891 41.0563 157.808 41.1372C157.724 41.218 157.613 41.2824 157.475 41.3302C157.336 41.3757 157.165 41.3984 156.964 41.3984H156.653V42.4507H156.312V39.7479H157.028ZM156.998 40.0394H156.653V41.1069H156.926C157.097 41.1069 157.24 41.0893 157.353 41.0539C157.467 41.016 157.551 40.9568 157.607 40.876C157.662 40.7951 157.69 40.6892 157.69 40.558C157.69 40.3839 157.635 40.2538 157.524 40.1681C157.413 40.0824 157.237 40.0394 156.998 40.0394ZM161.02 42.4507L160.695 41.6141H159.623L159.302 42.4507H158.957L160.013 39.7366H160.32L161.372 42.4507H161.02ZM160.29 40.4937C160.282 40.4734 160.269 40.4369 160.252 40.3839C160.234 40.3309 160.216 40.2765 160.199 40.2211C160.184 40.163 160.171 40.1189 160.161 40.0886C160.148 40.1392 160.134 40.1908 160.119 40.2438C160.107 40.2944 160.093 40.3409 160.078 40.3839C160.065 40.4269 160.054 40.4634 160.044 40.4937L159.737 41.3113H160.592L160.29 40.4937ZM164.248 40.3801C164.248 40.5642 164.19 40.7108 164.074 40.8192C163.958 40.9252 163.802 40.9933 163.608 41.0236V41.0388C163.835 41.069 164.008 41.1396 164.127 41.2507C164.245 41.3619 164.305 41.5068 164.305 41.6861C164.305 41.8451 164.264 41.9851 164.183 42.1062C164.103 42.2249 163.982 42.3182 163.82 42.3864C163.659 42.4545 163.457 42.4886 163.214 42.4886C163.068 42.4886 162.928 42.4772 162.794 42.4545C162.663 42.4342 162.541 42.3964 162.427 42.3409V42.0305C162.505 42.0684 162.589 42.1011 162.677 42.129C162.768 42.1541 162.859 42.1744 162.949 42.1895C163.04 42.2022 163.127 42.2085 163.211 42.2085C163.453 42.2085 163.636 42.163 163.759 42.0722C163.886 41.9813 163.949 41.8526 163.949 41.6861C163.949 41.5144 163.876 41.3895 163.729 41.3113C163.583 41.2332 163.378 41.194 163.116 41.194H162.73V40.9101H163.097C163.276 40.9101 163.424 40.8898 163.54 40.8495C163.659 40.8092 163.747 40.7524 163.805 40.6791C163.865 40.6034 163.896 40.515 163.896 40.4142C163.896 40.2779 163.845 40.1733 163.744 40.1C163.643 40.0267 163.512 39.9902 163.351 39.9902C163.182 39.9902 163.04 40.0116 162.927 40.0546C162.816 40.0975 162.707 40.153 162.601 40.2211L162.438 39.9902C162.509 39.9372 162.59 39.8904 162.681 39.8501C162.774 39.8072 162.877 39.7731 162.991 39.7479C163.105 39.7228 163.226 39.7101 163.354 39.7101C163.549 39.7101 163.712 39.739 163.843 39.7971C163.977 39.8553 164.077 39.9348 164.146 40.0356C164.214 40.1341 164.248 40.249 164.248 40.3801ZM166.5 39.7479C166.853 39.7479 167.111 39.8174 167.272 39.9561C167.433 40.0948 167.514 40.2906 167.514 40.5429C167.514 40.654 167.495 40.7611 167.458 40.8646C167.422 40.9655 167.363 41.0563 167.28 41.1372C167.196 41.218 167.085 41.2824 166.946 41.3302C166.808 41.3757 166.637 41.3984 166.435 41.3984H166.125V42.4507H165.784V39.7479H166.5ZM166.47 40.0394H166.125V41.1069H166.398C166.569 41.1069 166.712 41.0893 166.825 41.0539C166.939 41.016 167.024 40.9568 167.079 40.876C167.134 40.7951 167.162 40.6892 167.162 40.558C167.162 40.3839 167.107 40.2538 166.996 40.1681C166.885 40.0824 166.709 40.0394 166.47 40.0394ZM170.492 42.4507L170.167 41.6141H169.095L168.773 42.4507H168.429L169.485 39.7366H169.792L170.844 42.4507H170.492ZM169.761 40.4937C169.754 40.4734 169.741 40.4369 169.724 40.3839C169.706 40.3309 169.688 40.2765 169.671 40.2211C169.655 40.163 169.643 40.1189 169.633 40.0886C169.62 40.1392 169.606 40.1908 169.591 40.2438C169.579 40.2944 169.565 40.3409 169.549 40.3839C169.537 40.4269 169.526 40.4634 169.515 40.4937L169.209 41.3113H170.064L169.761 40.4937ZM172.122 42.4507V39.7479H173.727V40.047H172.463V40.8911H172.864C173.134 40.8911 173.344 40.9252 173.493 40.9933C173.642 41.059 173.745 41.1499 173.803 41.2659C173.861 41.3794 173.89 41.5106 173.89 41.6596C173.89 41.8237 173.857 41.9648 173.792 42.0835C173.729 42.2022 173.625 42.2931 173.481 42.3561C173.338 42.4191 173.148 42.4507 172.914 42.4507H172.122ZM172.88 42.1592C173.122 42.1592 173.292 42.119 173.391 42.0381C173.489 41.9548 173.538 41.8286 173.538 41.6596C173.538 41.5436 173.514 41.4514 173.466 41.3832C173.421 41.3127 173.345 41.2621 173.239 41.2318C173.136 41.2015 172.997 41.1864 172.823 41.1864H172.463V42.1592H172.88ZM177.718 41.0955C177.718 41.3051 177.692 41.4954 177.639 41.6671C177.586 41.8361 177.506 41.9827 177.4 42.1062C177.297 42.2298 177.167 42.3244 177.01 42.3902C176.856 42.4559 176.677 42.4886 176.473 42.4886C176.261 42.4886 176.077 42.4559 175.92 42.3902C175.764 42.322 175.634 42.2274 175.53 42.1062C175.427 41.9827 175.35 41.835 175.299 41.6634C175.249 41.4917 175.224 41.3013 175.224 41.0918C175.224 40.8141 175.269 40.5718 175.36 40.365C175.451 40.1581 175.588 39.9964 175.772 39.8804C175.959 39.7644 176.194 39.7063 176.477 39.7063C176.747 39.7063 176.974 39.7644 177.158 39.8804C177.342 39.994 177.481 40.1554 177.574 40.365C177.67 40.5718 177.718 40.8154 177.718 41.0955ZM175.583 41.0955C175.583 41.3227 175.615 41.5182 175.678 41.6823C175.741 41.8464 175.838 41.9724 175.969 42.0608C176.103 42.1492 176.271 42.1933 176.473 42.1933C176.677 42.1933 176.844 42.1492 176.972 42.0608C177.104 41.9724 177.201 41.8464 177.264 41.6823C177.327 41.5182 177.359 41.3227 177.359 41.0955C177.359 40.7549 177.288 40.4885 177.147 40.2968C177.005 40.1024 176.782 40.0053 176.477 40.0053C176.272 40.0053 176.103 40.0494 175.969 40.1378C175.838 40.2235 175.741 40.3485 175.678 40.5126C175.615 40.674 175.583 40.8684 175.583 41.0955ZM179.967 42.4507H179.626V40.047H178.782V39.7479H180.807V40.047H179.967V42.4507ZM184.095 42.4507H183.686L182.464 41.0804V42.4507H182.123V39.7479H182.464V41.0577L183.656 39.7479H184.042L182.869 41.0615L184.095 42.4507ZM187.067 42.4507L186.742 41.6141H185.67L185.349 42.4507H185.004L186.06 39.7366H186.367L187.419 42.4507H187.067ZM186.337 40.4937C186.329 40.4734 186.317 40.4369 186.299 40.3839C186.281 40.3309 186.264 40.2765 186.246 40.2211C186.231 40.163 186.218 40.1189 186.208 40.0886C186.196 40.1392 186.181 40.1908 186.166 40.2438C186.154 40.2944 186.14 40.3409 186.125 40.3839C186.112 40.4269 186.101 40.4634 186.091 40.4937L185.784 41.3113H186.64L186.337 40.4937Z" fill="black" fill-opacity="0.7"/>
<path d="M1.85599 28.6241C2.46165 28.6241 2.90292 28.7431 3.1798 28.981C3.45668 29.219 3.59511 29.5542 3.59511 29.9869C3.59511 30.1772 3.56267 30.3611 3.49777 30.5385C3.43721 30.7115 3.33554 30.8672 3.19278 31.0057C3.05001 31.1441 2.85966 31.2544 2.62172 31.3366C2.38378 31.4145 2.09177 31.4534 1.74567 31.4534H1.21355V33.2575H0.629517V28.6241H1.85599ZM1.80407 29.1238H1.21355V30.9538H1.68078C1.97496 30.9538 2.21939 30.9235 2.41407 30.8629C2.60874 30.798 2.75367 30.6964 2.84885 30.5579C2.94402 30.4195 2.99161 30.2378 2.99161 30.0128C2.99161 29.7143 2.89644 29.4915 2.70608 29.3444C2.51573 29.1973 2.21506 29.1238 1.80407 29.1238ZM10.0627 33.2575L9.50465 31.8233H7.66818L7.1166 33.2575H6.52607L8.33658 28.6046H8.86221L10.6662 33.2575H10.0627ZM8.8103 29.9025C8.79732 29.8679 8.77569 29.8052 8.7454 29.7143C8.71512 29.6235 8.68484 29.5305 8.65455 29.4353C8.6286 29.3358 8.60697 29.2601 8.58966 29.2082C8.56803 29.2947 8.54424 29.3834 8.51828 29.4742C8.49665 29.5607 8.47285 29.6408 8.4469 29.7143C8.42527 29.7879 8.4058 29.8506 8.38849 29.9025L7.86286 31.3042H9.32944L8.8103 29.9025ZM16.9587 29.7078C16.9587 30.0236 16.8592 30.2746 16.6602 30.4606C16.4612 30.6423 16.1951 30.7591 15.862 30.811V30.837C16.2514 30.8889 16.5477 31.01 16.7511 31.2004C16.9544 31.3907 17.0561 31.6395 17.0561 31.9466C17.0561 32.2192 16.9868 32.4593 16.8484 32.6669C16.71 32.8703 16.5023 33.0303 16.2254 33.1471C15.9485 33.2639 15.6025 33.3223 15.1871 33.3223C14.9362 33.3223 14.6961 33.3029 14.4668 33.2639C14.2419 33.2293 14.0321 33.1644 13.8374 33.0693V32.5371C13.9715 32.602 14.1142 32.6583 14.2657 32.7059C14.4214 32.7491 14.5771 32.7837 14.7329 32.8097C14.8886 32.8313 15.0379 32.8421 15.1807 32.8421C15.596 32.8421 15.9096 32.7643 16.1216 32.6085C16.3379 32.4528 16.4461 32.2322 16.4461 31.9466C16.4461 31.6524 16.3206 31.4383 16.0697 31.3042C15.8188 31.1701 15.4683 31.103 15.0184 31.103H14.3565V30.6163H14.986C15.2931 30.6163 15.5462 30.5817 15.7452 30.5125C15.9485 30.4433 16.1 30.3459 16.1995 30.2205C16.3033 30.0907 16.3552 29.9393 16.3552 29.7662C16.3552 29.5326 16.2687 29.3531 16.0956 29.2276C15.9226 29.1022 15.6976 29.0394 15.4208 29.0394C15.1309 29.0394 14.8886 29.0762 14.694 29.1497C14.5036 29.2233 14.3176 29.3185 14.1359 29.4353L13.8568 29.0394C13.978 28.9486 14.1164 28.8685 14.2722 28.7993C14.4322 28.7258 14.6096 28.6674 14.8043 28.6241C14.999 28.5809 15.2066 28.5592 15.4272 28.5592C15.7604 28.5592 16.0394 28.609 16.2644 28.7085C16.4936 28.808 16.6667 28.9443 16.7835 29.1173C16.9003 29.286 16.9587 29.4829 16.9587 29.7078ZM22.1818 28.6241C22.7875 28.6241 23.2288 28.7431 23.5057 28.981C23.7825 29.219 23.921 29.5542 23.921 29.9869C23.921 30.1772 23.8885 30.3611 23.8236 30.5385C23.7631 30.7115 23.6614 30.8672 23.5186 31.0057C23.3759 31.1441 23.1855 31.2544 22.9476 31.3366C22.7096 31.4145 22.4176 31.4534 22.0715 31.4534H21.5394V33.2575H20.9554V28.6241H22.1818ZM22.1299 29.1238H21.5394V30.9538H22.0066C22.3008 30.9538 22.5452 30.9235 22.7399 30.8629C22.9346 30.798 23.0795 30.6964 23.1747 30.5579C23.2699 30.4195 23.3175 30.2378 23.3175 30.0128C23.3175 29.7143 23.2223 29.4915 23.0319 29.3444C22.8416 29.1973 22.5409 29.1238 22.1299 29.1238ZM30.3885 33.2575L29.8304 31.8233H27.994L27.4424 33.2575H26.852L28.6624 28.6046H29.188L30.992 33.2575H30.3885ZM29.1361 29.9025C29.1231 29.8679 29.1015 29.8052 29.0712 29.7143C29.0409 29.6235 29.0106 29.5305 28.9803 29.4353C28.9544 29.3358 28.9327 29.2601 28.9154 29.2082C28.8938 29.2947 28.87 29.3834 28.8441 29.4742C28.8224 29.5607 28.7986 29.6408 28.7727 29.7143C28.751 29.7879 28.7316 29.8506 28.7143 29.9025L28.1886 31.3042H29.6552L29.1361 29.9025ZM34.5462 33.2575V28.6241H37.2977V29.1368H35.1303V30.5839H35.8181C36.281 30.5839 36.6401 30.6423 36.8953 30.7591C37.1506 30.8716 37.328 31.0273 37.4275 31.2263C37.527 31.421 37.5767 31.646 37.5767 31.9012C37.5767 32.1824 37.5205 32.4247 37.408 32.628C37.2998 32.8313 37.1225 32.9871 36.8759 33.0952C36.6293 33.2034 36.3048 33.2575 35.9025 33.2575H34.5462ZM35.8441 32.7578C36.2594 32.7578 36.5514 32.6886 36.7201 32.5501C36.8889 32.4074 36.9732 32.1911 36.9732 31.9012C36.9732 31.7022 36.9321 31.5443 36.8499 31.4275C36.772 31.3063 36.6423 31.2198 36.4606 31.1679C36.2832 31.116 36.0452 31.09 35.7467 31.09H35.1303V32.7578H35.8441ZM45.5015 30.9343C45.5015 31.2934 45.456 31.62 45.3652 31.9142C45.2743 32.204 45.1381 32.4549 44.9564 32.6669C44.779 32.8789 44.5562 33.0411 44.288 33.1536C44.0241 33.2661 43.7169 33.3223 43.3665 33.3223C43.0031 33.3223 42.6873 33.2661 42.4191 33.1536C42.1508 33.0368 41.928 32.8746 41.7507 32.6669C41.5733 32.4549 41.4414 32.2019 41.3548 31.9077C41.2683 31.6135 41.225 31.2869 41.225 30.9278C41.225 30.4519 41.3029 30.0366 41.4587 29.6819C41.6144 29.3271 41.8502 29.0502 42.166 28.8512C42.4861 28.6522 42.8885 28.5527 43.373 28.5527C43.8359 28.5527 44.2252 28.6522 44.5411 28.8512C44.8569 29.0459 45.0948 29.3228 45.2549 29.6819C45.4193 30.0366 45.5015 30.4541 45.5015 30.9343ZM41.8415 30.9343C41.8415 31.3237 41.8956 31.6589 42.0038 31.9401C42.1119 32.2213 42.2785 32.4376 42.5034 32.5891C42.7327 32.7405 43.0204 32.8162 43.3665 32.8162C43.7169 32.8162 44.0024 32.7405 44.2231 32.5891C44.448 32.4376 44.6146 32.2213 44.7228 31.9401C44.8309 31.6589 44.885 31.3237 44.885 30.9343C44.885 30.3503 44.7639 29.8939 44.5216 29.5651C44.2793 29.2319 43.8965 29.0654 43.373 29.0654C43.0226 29.0654 42.7327 29.1411 42.5034 29.2925C42.2785 29.4396 42.1119 29.6537 42.0038 29.9349C41.8956 30.2118 41.8415 30.5449 41.8415 30.9343ZM50.7188 33.2575H50.1348V29.1368H48.6877V28.6241H52.1595V29.1368H50.7188V33.2575ZM58.2291 33.2575L57.671 31.8233H55.8345L55.283 33.2575H54.6924L56.5029 28.6046H57.0286L58.8326 33.2575H58.2291ZM56.9767 29.9025C56.9637 29.8679 56.9421 29.8052 56.9118 29.7143C56.8815 29.6235 56.8512 29.5305 56.8209 29.4353C56.795 29.3358 56.7733 29.2601 56.756 29.2082C56.7344 29.2947 56.7106 29.3834 56.6847 29.4742C56.663 29.5607 56.6392 29.6408 56.6133 29.7143C56.5916 29.7879 56.5722 29.8506 56.5549 29.9025L56.0292 31.3042H57.4958L56.9767 29.9025ZM65.9297 33.2575H65.3457V31.0965H62.9706V33.2575H62.3866V28.6241H62.9706V30.5839H65.3457V28.6241H65.9297V33.2575ZM74.1594 30.9343C74.1594 31.2934 74.114 31.62 74.0232 31.9142C73.9323 32.204 73.796 32.4549 73.6143 32.6669C73.437 32.8789 73.2142 33.0411 72.9459 33.1536C72.6821 33.2661 72.3749 33.3223 72.0245 33.3223C71.6611 33.3223 71.3453 33.2661 71.077 33.1536C70.8088 33.0368 70.586 32.8746 70.4086 32.6669C70.2313 32.4549 70.0993 32.2019 70.0128 31.9077C69.9263 31.6135 69.883 31.2869 69.883 30.9278C69.883 30.4519 69.9609 30.0366 70.1166 29.6819C70.2724 29.3271 70.5081 29.0502 70.824 28.8512C71.1441 28.6522 71.5464 28.5527 72.031 28.5527C72.4939 28.5527 72.8832 28.6522 73.199 28.8512C73.5148 29.0459 73.7528 29.3228 73.9128 29.6819C74.0772 30.0366 74.1594 30.4541 74.1594 30.9343ZM70.4995 30.9343C70.4995 31.3237 70.5536 31.6589 70.6617 31.9401C70.7699 32.2213 70.9364 32.4376 71.1614 32.5891C71.3907 32.7405 71.6784 32.8162 72.0245 32.8162C72.3749 32.8162 72.6604 32.7405 72.8811 32.5891C73.106 32.4376 73.2726 32.2213 73.3807 31.9401C73.4889 31.6589 73.543 31.3237 73.543 30.9343C73.543 30.3503 73.4218 29.8939 73.1796 29.5651C72.9373 29.2319 72.5544 29.0654 72.031 29.0654C71.6805 29.0654 71.3907 29.1411 71.1614 29.2925C70.9364 29.4396 70.7699 29.6537 70.6617 29.9349C70.5536 30.2118 70.4995 30.5449 70.4995 30.9343ZM84.0807 28.6241C84.4658 28.6241 84.7881 28.6609 85.0476 28.7344C85.3115 28.808 85.5084 28.9291 85.6382 29.0978C85.7723 29.2666 85.8393 29.4915 85.8393 29.7727C85.8393 29.9544 85.8047 30.1166 85.7355 30.2594C85.6706 30.3979 85.5711 30.5147 85.437 30.6098C85.3072 30.7007 85.1471 30.7634 84.9568 30.798V30.8305C85.1515 30.8608 85.3267 30.917 85.4824 30.9992C85.6425 31.0814 85.7679 31.1982 85.8588 31.3496C85.9496 31.501 85.9951 31.6979 85.9951 31.9401C85.9951 32.2213 85.9302 32.4614 85.8004 32.6604C85.6706 32.8551 85.4846 33.0044 85.2423 33.1082C85.0044 33.2077 84.7188 33.2575 84.3857 33.2575H82.7569V28.6241H84.0807ZM84.1975 30.5969C84.5955 30.5969 84.8681 30.5341 85.0152 30.4087C85.1623 30.2789 85.2358 30.0885 85.2358 29.8376C85.2358 29.5824 85.145 29.4007 84.9633 29.2925C84.7859 29.18 84.5004 29.1238 84.1067 29.1238H83.341V30.5969H84.1975ZM83.341 31.0835V32.7643H84.2754C84.6864 32.7643 84.9719 32.6842 85.132 32.5242C85.2921 32.3641 85.3721 32.1543 85.3721 31.8947C85.3721 31.7303 85.3353 31.5875 85.2618 31.4664C85.1926 31.3453 85.0736 31.2523 84.9049 31.1874C84.7405 31.1182 84.5155 31.0835 84.23 31.0835H83.341Z" fill="black" fill-opacity="0.7"/>
<defs>
<filter id="filter0_i_144_2" x="101.604" y="12.3724" width="17.7252" height="26.8039" filterUnits="userSpaceOnUse" color-interpolation-filters="sRGB">
<feFlood flood-opacity="0" result="BackgroundImageFix"/>
<feBlend mode="normal" in="SourceGraphic" in2="BackgroundImageFix" result="shape"/>
<feColorMatrix in="SourceAlpha" type="matrix" values="0 0 0 0 0 0 0 0 0 0 0 0 0 0 0 0 0 0 127 0" result="hardAlpha"/>
<feOffset dx="-1.71674" dy="-1.71674"/>
<feGaussianBlur stdDeviation="2.57511"/>
<feComposite in2="hardAlpha" operator="arithmetic" k2="-1" k3="1"/>
<feColorMatrix type="matrix" values="0 0 0 0 1 0 0 0 0 1 0 0 0 0 1 0 0 0 0.12 0"/>
<feBlend mode="normal" in2="shape" result="effect1_innerShadow_144_2"/>
</filter>
<filter id="filter1_i_144_2" x="94.3188" y="23.7869" width="17.7252" height="26.8039" filterUnits="userSpaceOnUse" color-interpolation-filters="sRGB">
<feFlood flood-opacity="0" result="BackgroundImageFix"/>
<feBlend mode="normal" in="SourceGraphic" in2="BackgroundImageFix" result="shape"/>
<feColorMatrix in="SourceAlpha" type="matrix" values="0 0 0 0 0 0 0 0 0 0 0 0 0 0 0 0 0 0 127 0" result="hardAlpha"/>
<feOffset dx="1.71674" dy="1.71674"/>
<feGaussianBlur stdDeviation="2.57511"/>
<feComposite in2="hardAlpha" operator="arithmetic" k2="-1" k3="1"/>
<feColorMatrix type="matrix" values="0 0 0 0 1 0 0 0 0 1 0 0 0 0 1 0 0 0 0.12 0"/>
<feBlend mode="normal" in2="shape" result="effect1_innerShadow_144_2"/>
</filter>
<filter id="filter2_ii_144_2" x="124.004" y="20.3423" width="48.4547" height="15.5814" filterUnits="userSpaceOnUse" color-interpolation-filters="sRGB">
<feFlood flood-opacity="0" result="BackgroundImageFix"/>
<feBlend mode="normal" in="SourceGraphic" in2="BackgroundImageFix" result="shape"/>
<feColorMatrix in="SourceAlpha" type="matrix" values="0 0 0 0 0 0 0 0 0 0 0 0 0 0 0 0 0 0 127 0" result="hardAlpha"/>
<feOffset dx="-1.71674" dy="-1.71674"/>
<feGaussianBlur stdDeviation="0.858369"/>
<feComposite in2="hardAlpha" operator="arithmetic" k2="-1" k3="1"/>
<feColorMatrix type="matrix" values="0 0 0 0 0.321569 0 0 0 0 0.0901961 0 0 0 0 0.784314 0 0 0 0.24 0"/>
<feBlend mode="normal" in2="shape" result="effect1_innerShadow_144_2"/>
<feColorMatrix in="SourceAlpha" type="matrix" values="0 0 0 0 0 0 0 0 0 0 0 0 0 0 0 0 0 0 127 0" result="hardAlpha"/>
<feOffset dx="1.71674" dy="1.71674"/>
<feGaussianBlur stdDeviation="1.71674"/>
<feComposite in2="hardAlpha" operator="arithmetic" k2="-1" k3="1"/>
<feColorMatrix type="matrix" values="0 0 0 0 0.980392 0 0 0 0 0.486275 0 0 0 0 0.0745098 0 0 0 0.04 0"/>
<feBlend mode="normal" in2="effect1_innerShadow_144_2" result="effect2_innerShadow_144_2"/>
</filter>
<linearGradient id="paint0_linear_144_2" x1="94.1731" y1="15.1962" x2="114.671" y2="32.0607" gradientUnits="userSpaceOnUse">
<stop stop-color="#7733FF"/>
<stop offset="1" stop-color="#330099"/>
</linearGradient>
<linearGradient id="paint1_linear_144_2" x1="119.475" y1="47.7667" x2="98.9763" y2="30.9022" gradientUnits="userSpaceOnUse">
<stop stop-color="#FE7919"/>
<stop offset="1" stop-color="#B33C00"/>
</linearGradient>
<radialGradient id="paint2_radial_144_2" cx="0" cy="0" r="1" gradientUnits="userSpaceOnUse" gradientTransform="translate(110.432 19.5462) rotate(63.2379) scale(28.2886 20.1149)">
<stop stop-color="#7C4DFF"/>
<stop offset="1" stop-color="#3F1F99"/>
</radialGradient>
<linearGradient id="paint3_linear_144_2" x1="104.907" y1="13.1728" x2="118.182" y2="36.1643" gradientUnits="userSpaceOnUse">
<stop stop-color="#1C1A1A" stop-opacity="0.12"/>
<stop offset="1" stop-color="#0E0D0D" stop-opacity="0"/>
</linearGradient>
<radialGradient id="paint4_radial_144_2" cx="0" cy="0" r="1" gradientUnits="userSpaceOnUse" gradientTransform="translate(103.215 43.4171) rotate(-117.839) scale(26.5851 18.9037)">
<stop stop-color="#FF8214"/>
<stop offset="1" stop-color="#CC4400"/>
</radialGradient>
<linearGradient id="paint5_linear_144_2" x1="108.74" y1="49.7905" x2="95.4661" y2="26.7989" gradientUnits="userSpaceOnUse">
<stop stop-color="#453434" stop-opacity="0"/>
<stop offset="1" stop-color="#2E2929" stop-opacity="0.08"/>
</linearGradient>
</defs>
</svg>
