<svg width="24" height="24" viewBox="0 0 24 24" fill="none" xmlns="http://www.w3.org/2000/svg">
<path d="M14.35 17.95C14.07 18.84 13.34 19.57 12.45 19.85C10.94 20.33 9.51 19.62 8.86 18.43C8.51 17.78 9.03 17 9.77 17H9.78C10.12 17 10.46 17.16 10.62 17.46C10.79 17.78 11.12 18 11.51 18C12.06 18 12.51 17.55 12.51 17C12.51 16.45 12.06 16 11.51 16H3C2.45 16 2 15.55 2 15C2 14.45 2.45 14 3 14H11.5C13.46 14 15 15.9 14.35 17.95ZM18.91 5.67C18.62 4.41 17.59 3.38 16.33 3.09C14.57 2.69 12.96 3.62 12.31 5.07C12 5.74 12.48 6.5 13.21 6.5C13.6 6.5 13.96 6.28 14.11 5.93C14.34 5.38 14.87 5 15.5 5C16.33 5 17 5.67 17 6.5C17 7.33 16.33 8 15.5 8H3C2.45 8 2 8.45 2 9C2 9.55 2.45 10 3 10H15.5C17.7 10 19.43 7.96 18.91 5.67ZM18.4 11H3C2.45 11 2 11.45 2 12C2 12.55 2.45 13 3 13H18.5C19.33 13 20 13.67 20 14.5C20 15.13 19.62 15.66 19.07 15.89C18.71 16.04 18.5 16.4 18.5 16.79C18.5 17.52 19.26 18 19.93 17.7C21.36 17.06 22.28 15.49 21.93 13.77C21.59 12.13 20.07 11 18.4 11Z" fill="#2A85E3"/>
</svg>
