<svg width="36" height="36" viewBox="0 0 36 36" fill="none" xmlns="http://www.w3.org/2000/svg">
<path d="M26.43 16.125C25.785 16.125 25.275 15.6 25.275 14.97C25.275 14.415 24.72 13.26 23.79 12.255C22.875 11.28 21.87 10.71 21.03 10.71C20.385 10.71 19.875 10.185 19.875 9.55499C19.875 8.92499 20.4 8.39999 21.03 8.39999C22.53 8.39999 24.105 9.20999 25.485 10.665C26.775 12.03 27.6 13.725 27.6 14.955C27.6 15.6 27.075 16.125 26.43 16.125Z" fill="#2A85E3"/>
<path d="M31.8447 16.125C31.1996 16.125 30.6896 15.6 30.6896 14.97C30.6896 9.645 26.3546 5.325 21.0446 5.325C20.3996 5.325 19.8896 4.8 19.8896 4.17C19.8896 3.54 20.3996 3 21.0296 3C27.6297 3 32.9997 8.37 32.9997 14.97C32.9997 15.6 32.4747 16.125 31.8447 16.125Z" fill="#2A85E3"/>
<path d="M16.575 22.425L13.8 25.2C13.215 25.785 12.285 25.785 11.685 25.215C11.52 25.05 11.355 24.9 11.19 24.735C9.645 23.175 8.25 21.54 7.005 19.83C5.775 18.12 4.785 16.41 4.065 14.715C3.36 13.005 3 11.37 3 9.81C3 8.79 3.18 7.815 3.54 6.915C3.9 6 4.47 5.16 5.265 4.41C6.225 3.465 7.275 3 8.385 3C8.805 3 9.225 3.09 9.6 3.27C9.99 3.45 10.335 3.72 10.605 4.11L14.085 9.015C14.355 9.39 14.55 9.735 14.685 10.065C14.82 10.38 14.895 10.695 14.895 10.98C14.895 11.34 14.79 11.7 14.58 12.045C14.385 12.39 14.1 12.75 13.74 13.11L12.6 14.295C12.435 14.46 12.36 14.655 12.36 14.895C12.36 15.015 12.375 15.12 12.405 15.24C12.45 15.36 12.495 15.45 12.525 15.54C12.795 16.035 13.26 16.68 13.92 17.46C14.595 18.24 15.315 19.035 16.095 19.83C16.245 19.98 16.41 20.13 16.56 20.28C17.16 20.865 17.175 21.825 16.575 22.425Z" fill="#2A85E3"/>
<path d="M32.9544 27.495C32.9544 27.915 32.8794 28.35 32.7294 28.77C32.6844 28.89 32.6394 29.01 32.5794 29.13C32.3244 29.67 31.9944 30.18 31.5594 30.66C30.8244 31.47 30.0144 32.055 29.0994 32.43C29.0844 32.43 29.0694 32.445 29.0544 32.445C28.1694 32.805 27.2094 33 26.1744 33C24.6444 33 23.0094 32.64 21.2844 31.905C19.5594 31.17 17.8344 30.18 16.1244 28.935C15.5394 28.5 14.9544 28.065 14.3994 27.6L19.3044 22.695C19.7244 23.01 20.0994 23.25 20.4144 23.415C20.4894 23.445 20.5794 23.49 20.6844 23.535C20.8044 23.58 20.9244 23.595 21.0594 23.595C21.3144 23.595 21.5094 23.505 21.6744 23.34L22.8144 22.215C23.1894 21.84 23.5494 21.555 23.8944 21.375C24.2394 21.165 24.5844 21.06 24.9594 21.06C25.2444 21.06 25.5444 21.12 25.8744 21.255C26.2044 21.39 26.5494 21.585 26.9244 21.84L31.8894 25.365C32.2794 25.635 32.5494 25.95 32.7144 26.325C32.8644 26.7 32.9544 27.075 32.9544 27.495Z" fill="#2A85E3"/>
</svg>
