<svg width="14" height="9" viewBox="0 0 14 9" fill="none" xmlns="http://www.w3.org/2000/svg">
<path fill-rule="evenodd" clip-rule="evenodd" d="M11.7617 0.489243C12.2946 0.630289 12.7143 1.04366 12.8573 1.56754C13.1228 2.52372 13.1104 4.51729 13.1104 4.51729C13.1104 4.51729 13.1085 6.49986 12.8511 7.45543C12.7062 7.9787 12.2846 8.39146 11.7524 8.5319C10.7787 8.78224 6.88322 8.77796 6.88322 8.77796C6.88322 8.77796 2.99832 8.77369 2.01466 8.51114C1.48117 8.37009 1.06147 7.95672 0.918461 7.43345C0.66353 6.48704 0.666017 4.49408 0.666017 4.49408C0.666017 4.49408 0.668505 2.5109 0.925301 1.55472C1.06955 1.03144 1.50107 0.608918 2.02337 0.469094C2.9977 0.218143 6.89255 0.222417 6.89255 0.222417C6.89255 0.222417 10.788 0.226691 11.7617 0.489243ZM5.64959 2.66772L5.64649 6.33125L8.88722 4.50254L5.64959 2.66772Z" fill="#041C35"/>
</svg>
